<svg width="28" height="31" viewBox="0 0 28 31" fill="none" xmlns="http://www.w3.org/2000/svg">
<path d="M16.3325 29.0214L13.9991 29.9003L11.6658 29.0214C8.69717 27.9122 6.13819 25.9228 4.33122 23.3193C2.52424 20.7159 1.55548 17.6227 1.55469 14.4536V8.12249C3.96961 8.12249 6.35142 7.56024 8.51139 6.48025C10.6714 5.40027 12.5502 3.83221 13.9991 1.90027C15.4481 3.83221 17.3269 5.40027 19.4869 6.48025C21.6468 7.56024 24.0287 8.12249 26.4436 8.12249V8.12249V14.4536C26.4428 17.6227 25.474 20.7159 23.667 23.3193C21.8601 25.9228 19.3011 27.9122 16.3325 29.0214V29.0214Z" stroke="white" stroke-width="2" stroke-linecap="round" stroke-linejoin="round"/>
<path d="M9.33203 15.9003L12.4431 19.0114L18.6654 12.7892" stroke="white" stroke-width="2" stroke-linecap="round" stroke-linejoin="round"/>
</svg>
