<svg width="30" height="31" viewBox="0 0 30 31" fill="none" xmlns="http://www.w3.org/2000/svg">
<path d="M3.47331 7.97668C5.37439 5.22164 8.20126 3.23882 11.4408 2.38812C14.6803 1.53742 18.1177 1.87522 21.1292 3.34021C24.1407 4.8052 26.5268 7.30028 27.854 10.3726C29.1813 13.4449 29.3619 16.8907 28.3631 20.0847C27.3644 23.2787 25.2526 26.0092 22.4107 27.7804C19.5689 29.5517 16.1856 30.2464 12.8748 29.7384C9.56406 29.2305 6.54532 27.5535 4.36654 25.012C2.18775 22.4704 0.993311 19.2327 1.00003 15.8865" stroke="white" stroke-width="2" stroke-linecap="round" stroke-linejoin="round"/>
<path d="M8.77837 8.11649H2.55615V1.90051" stroke="white" stroke-width="2" stroke-linecap="round" stroke-linejoin="round"/>
<path d="M15.0002 9.67053V15.8865L19.6669 20.5485" stroke="white" stroke-width="2" stroke-linecap="round" stroke-linejoin="round"/>
</svg>
