<svg width="21" height="16" viewBox="0 0 21 16" fill="none" xmlns="http://www.w3.org/2000/svg">
<path fill-rule="evenodd" clip-rule="evenodd" d="M12.8281 15.5147L20.2418 8.14841C20.2654 8.10322 20.2777 8.053 20.2777 8.00203C20.2777 7.95106 20.2654 7.90085 20.2418 7.85566L12.8281 0.449778C12.7829 0.426204 12.7326 0.413893 12.6817 0.413893C12.6307 0.413893 12.5805 0.426204 12.5353 0.449778L11.6096 1.42299L17.4093 7.22267L1.51352 7.22267C1.30853 7.23737 1.1157 7.32545 0.970386 7.47077C0.825066 7.61609 0.736987 7.80891 0.72229 8.0139C0.725809 8.22642 0.809137 8.42984 0.955721 8.58375C1.10231 8.73767 1.30142 8.83081 1.51352 8.84469L17.2668 8.84469L11.6096 14.589L12.5353 15.5147C12.6302 15.6097 12.7806 15.6097 12.8281 15.5147Z" fill="white"/>
</svg>
