<svg width="32" height="32" viewBox="0 0 32 32" fill="none" xmlns="http://www.w3.org/2000/svg">
<circle cx="16" cy="16" r="15.5" stroke="white"/>
<path fill-rule="evenodd" clip-rule="evenodd" d="M18.1481 22.9343L24.9892 16.137C25.011 16.0953 25.0223 16.049 25.0223 16.002C25.0223 15.9549 25.011 15.9086 24.9892 15.8669L18.1481 9.03311C18.1064 9.01136 18.0601 9 18.0131 9C17.966 9 17.9197 9.01136 17.878 9.03311L17.0238 9.93114L22.3754 15.2828L7.70764 15.2828C7.51849 15.2964 7.34056 15.3776 7.20647 15.5117C7.07238 15.6458 6.9911 15.8238 6.97754 16.0129C6.98079 16.209 7.05768 16.3967 7.19294 16.5387C7.3282 16.6808 7.51193 16.7667 7.70764 16.7795L22.244 16.7795L17.0238 22.0801L17.878 22.9343C17.9656 23.0219 18.1043 23.0219 18.1481 22.9343Z" fill="white"/>
</svg>
