<svg width="20" height="16" viewBox="0 0 20 16" fill="none" xmlns="http://www.w3.org/2000/svg">
<path fill-rule="evenodd" clip-rule="evenodd" d="M12.1058 15.9288L19.5196 8.56247C19.5431 8.51728 19.5554 8.46706 19.5554 8.41609C19.5554 8.36512 19.5431 8.31491 19.5196 8.26972L12.1058 0.863841C12.0606 0.840267 12.0104 0.827956 11.9594 0.827956C11.9084 0.827956 11.8582 0.840267 11.813 0.863841L10.8873 1.83705L16.687 7.63674L0.791226 7.63674C0.586239 7.65143 0.393415 7.73951 0.248095 7.88483C0.102776 8.03015 0.0146966 8.22298 -3.30984e-07 8.42796C0.00351912 8.64048 0.0868466 8.8439 0.233431 8.99782C0.380016 9.15173 0.579132 9.24488 0.791226 9.25875L16.5445 9.25875L10.8873 15.0031L11.813 15.9288C11.908 16.0237 12.0583 16.0237 12.1058 15.9288Z" fill="#42AB75"/>
</svg>
