<svg width="32" height="24" viewBox="0 0 32 24" fill="none" xmlns="http://www.w3.org/2000/svg">
<path fill-rule="evenodd" clip-rule="evenodd" d="M19.6823 23.8874L31.4099 12.2349C31.4471 12.1634 31.4666 12.084 31.4666 12.0033C31.4666 11.9227 31.4471 11.8433 31.4099 11.7718L19.6823 0.0567638C19.6108 0.0194732 19.5314 -8.30458e-07 19.4507 -8.26934e-07C19.3701 -8.23409e-07 19.2907 0.0194732 19.2192 0.0567638L17.7548 1.59624L26.9291 10.7705L1.78432 10.7705C1.46006 10.7938 1.15504 10.9331 0.925166 11.163C0.695292 11.3928 0.555963 11.6979 0.532714 12.0221C0.538282 12.3583 0.670094 12.6801 0.901969 12.9235C1.13385 13.167 1.44882 13.3144 1.78432 13.3363L26.7038 13.3363L17.7548 22.423L19.2192 23.8874C19.3694 24.0375 19.6072 24.0375 19.6823 23.8874Z" fill="white"/>
</svg>
