<svg width="14" height="13" viewBox="0 0 14 13" fill="none" xmlns="http://www.w3.org/2000/svg">
<path d="M1.31629 3.3156L4.7104 6.70971L1.31629 10.1038C1.01623 10.4039 0.847656 10.8108 0.847656 11.2352C0.847656 11.6595 1.01623 12.0665 1.31629 12.3666C1.61634 12.6666 2.02331 12.8352 2.44766 12.8352C2.872 12.8352 3.27897 12.6666 3.57903 12.3666L6.97314 8.97245L10.3673 12.3666C10.6673 12.6666 11.0743 12.8352 11.4986 12.8352C11.923 12.8352 12.3299 12.6666 12.63 12.3666C12.9301 12.0665 13.0986 11.6595 13.0986 11.2352C13.0986 10.8108 12.9301 10.4039 12.63 10.1038L9.23588 6.70971L12.63 3.3156C12.9301 3.01554 13.0986 2.60858 13.0986 2.18423C13.0986 1.75988 12.9301 1.35292 12.63 1.05286C12.3299 0.7528 11.923 0.584228 11.4986 0.584229C11.0743 0.584229 10.6673 0.7528 10.3673 1.05286L6.97314 4.44697L3.57903 1.05286C3.27897 0.752802 2.872 0.584231 2.44766 0.584231C2.02331 0.584231 1.61635 0.752802 1.31629 1.05286C1.01623 1.35292 0.847659 1.75988 0.847659 2.18423C0.847659 2.60858 1.01623 3.01554 1.31629 3.3156Z" fill="white"/>
</svg>
