<svg width="689" height="294" viewBox="0 0 689 294" fill="none" xmlns="http://www.w3.org/2000/svg">
<path style="mix-blend-mode:multiply" d="M452.076 24.3138V49.0711H295.091V3.13477H182.605V268.324H295.091L572.621 269.96V24.3138H452.076Z" fill="url(#paint0_linear_1_4123)"/>
<path d="M544.088 41.043H469.801C469.302 41.043 468.824 40.8448 468.471 40.4921C468.118 40.1394 467.92 39.661 467.92 39.1621C467.92 38.6619 468.118 38.1818 468.47 37.8267C468.822 37.4715 469.301 37.27 469.801 37.2659H544.088C544.588 37.27 545.067 37.4715 545.419 37.8267C545.771 38.1818 545.969 38.6619 545.969 39.1621C545.969 39.661 545.771 40.1394 545.418 40.4921C545.065 40.8448 544.587 41.043 544.088 41.043Z" fill="white"/>
<path d="M544.088 55.7231H469.801C469.301 55.7191 468.822 55.5175 468.47 55.1623C468.118 54.8072 467.92 54.3272 467.92 53.8269C467.92 53.3281 468.118 52.8497 468.471 52.4969C468.824 52.1442 469.302 51.946 469.801 51.946H544.088C544.587 51.946 545.065 52.1442 545.418 52.4969C545.771 52.8497 545.969 53.3281 545.969 53.8269C545.969 54.3272 545.771 54.8072 545.419 55.1623C545.067 55.5175 544.588 55.7191 544.088 55.7231Z" fill="white"/>
<path d="M544.088 70.4184H469.801C469.302 70.4184 468.824 70.2202 468.471 69.8675C468.118 69.5148 467.92 69.0363 467.92 68.5375C467.92 68.0387 468.118 67.5603 468.471 67.2075C468.824 66.8548 469.302 66.6566 469.801 66.6566H544.088C544.587 66.6566 545.065 66.8548 545.418 67.2075C545.771 67.5603 545.969 68.0387 545.969 68.5375C545.969 69.0363 545.771 69.5148 545.418 69.8675C545.065 70.2202 544.587 70.4184 544.088 70.4184Z" fill="white"/>
<path d="M544.088 85.1291H469.801C469.302 85.1291 468.824 84.9309 468.471 84.5782C468.118 84.2255 467.92 83.7471 467.92 83.2482C467.92 82.748 468.118 82.268 468.47 81.9128C468.822 81.5576 469.301 81.3561 469.801 81.3521H544.088C544.588 81.3561 545.067 81.5576 545.419 81.9128C545.771 82.268 545.969 82.748 545.969 83.2482C545.969 83.7471 545.771 84.2255 545.418 84.5782C545.065 84.9309 544.587 85.1291 544.088 85.1291Z" fill="white"/>
<path d="M544.088 99.8245H469.801C469.302 99.8245 468.824 99.6263 468.471 99.2736C468.118 98.9208 467.92 98.4424 467.92 97.9436C467.92 97.4447 468.118 96.9663 468.471 96.6136C468.824 96.2608 469.302 96.0627 469.801 96.0627H544.088C544.587 96.0627 545.065 96.2608 545.418 96.6136C545.771 96.9663 545.969 97.4447 545.969 97.9436C545.969 98.4424 545.771 98.9208 545.418 99.2736C545.065 99.6263 544.587 99.8245 544.088 99.8245Z" fill="white"/>
<path d="M544.088 114.535H469.801C469.302 114.535 468.824 114.337 468.471 113.984C468.118 113.631 467.92 113.153 467.92 112.654C467.92 112.155 468.118 111.677 468.471 111.324C468.824 110.971 469.302 110.773 469.801 110.773H544.088C544.587 110.773 545.065 110.971 545.418 111.324C545.771 111.677 545.969 112.155 545.969 112.654C545.969 113.153 545.771 113.631 545.418 113.984C545.065 114.337 544.587 114.535 544.088 114.535Z" fill="white"/>
<path d="M205.116 16.9585H195.467V26.6076H205.116V16.9585Z" fill="white"/>
<path d="M224.614 16.9585H214.965V26.6076H224.614V16.9585Z" fill="white"/>
<path d="M244.11 16.9585H234.461V26.6076H244.11V16.9585Z" fill="white"/>
<path d="M263.606 16.9585H253.957V26.6076H263.606V16.9585Z" fill="white"/>
<path d="M205.116 41.0125H195.467V50.6615H205.116V41.0125Z" fill="white"/>
<path d="M224.614 41.0125H214.965V50.6615H224.614V41.0125Z" fill="white"/>
<path d="M244.11 41.0125H234.461V50.6615H244.11V41.0125Z" fill="white"/>
<path d="M263.606 41.0125H253.957V50.6615H263.606V41.0125Z" fill="white"/>
<path d="M205.116 65.0663H195.467V74.7154H205.116V65.0663Z" fill="white"/>
<path d="M224.614 65.0663H214.965V74.7154H224.614V65.0663Z" fill="white"/>
<path d="M244.11 65.0663H234.461V74.7154H244.11V65.0663Z" fill="white"/>
<path d="M263.606 65.0663H253.957V74.7154H263.606V65.0663Z" fill="white"/>
<path d="M389.26 213.595C381.201 230.66 370.42 230.66 366.873 230.66C358.294 230.66 351.168 225.232 345.724 214.543C339.179 201.698 335.708 182.43 335.708 158.789C335.708 158.484 335.708 158.178 335.708 157.872H290.322V158.575C290.628 192.125 297.586 220.063 310.416 239.377C323.704 259.363 342.696 269.96 365.343 269.96C390.284 269.96 410.607 259.164 424.156 238.704C436.894 219.482 443.454 192.294 443.729 157.902H398.343C398.267 181.727 395.117 200.964 389.26 213.595Z" fill="#42AB75"/>
<path d="M353.308 278.462H310.154L313.075 261.84L315.965 245.325L318.916 228.673L321.807 212.157L323.978 199.771C324.18 198.613 324.785 197.563 325.686 196.808C326.587 196.052 327.726 195.639 328.902 195.642H334.621C335.796 195.642 336.934 196.056 337.834 196.811C338.734 197.566 339.34 198.614 339.545 199.771L341.716 212.157L344.607 228.673L347.527 245.325L350.417 261.84L353.308 278.462Z" fill="#FFA726"/>
<path d="M366.704 288.188H296.76L310.14 278.478H353.309L366.704 288.188Z" fill="#FB8C00"/>
<path d="M296.76 288.188H366.704V289.717C366.704 290.747 366.295 291.735 365.567 292.464C364.838 293.192 363.85 293.601 362.82 293.601H300.568C299.538 293.601 298.55 293.192 297.821 292.464C297.093 291.735 296.684 290.747 296.684 289.717V288.188H296.76Z" fill="#FFA726"/>
<path d="M344.577 228.673H318.887L321.777 212.157H341.687L344.577 228.673Z" fill="#ECEFF1"/>
<path d="M350.388 261.84H313.076L315.966 245.31H347.498L350.388 261.84Z" fill="#ECEFF1"/>
<path style="mix-blend-mode:multiply" d="M366.702 291.69V288.188L353.307 278.478L350.386 261.856L347.496 245.341L344.575 228.688L341.685 212.173L339.514 199.786C339.309 198.629 338.703 197.581 337.803 196.826C336.902 196.071 335.765 195.658 334.59 195.658L343.077 278.478L353.307 288.203V293.555H364.791C365.04 293.564 365.289 293.521 365.521 293.431C365.754 293.341 365.966 293.204 366.145 293.03C366.323 292.856 366.465 292.647 366.561 292.417C366.656 292.187 366.705 291.939 366.702 291.69Z" fill="url(#paint1_linear_1_4123)"/>
<path style="mix-blend-mode:multiply" d="M296.76 291.69V288.188L310.155 278.478L313.076 261.856L315.966 245.341L318.917 228.673L321.808 212.157L323.979 199.771C324.184 198.614 324.79 197.566 325.69 196.811C326.59 196.056 327.728 195.642 328.903 195.642L320.447 278.462L310.216 288.188V293.54H298.671C298.423 293.548 298.176 293.506 297.944 293.417C297.713 293.328 297.501 293.193 297.323 293.02C297.145 292.848 297.003 292.641 296.906 292.412C296.809 292.184 296.76 291.938 296.76 291.69Z" fill="url(#paint2_linear_1_4123)"/>
<path d="M445.747 76.6269C432.657 56.4877 413.16 45.8446 389.381 45.8446C365.893 45.8446 346.09 56.4418 332.083 76.4281C318.32 96.0626 311.072 124.199 310.98 157.841H356.382C356.473 133.864 360.082 114.29 366.856 101.262C372.407 90.5576 379.472 85.0985 387.852 85.0985C399.489 85.0985 419.017 94.4417 419.017 156.97C419.017 157.275 419.017 157.581 419.017 157.887H464.402C464.402 157.168 464.402 156.465 464.402 155.746C464.402 122.319 458.072 95.6957 445.747 76.6269Z" fill="#42AB75"/>
<path d="M618.818 169.494H600.193V45.8446H557.086L554.318 49.7899L465.626 176.711L463.959 179.097V208.992H556.397V263.232H600.254V209.069H628.1V169.494H618.818ZM517.893 169.494L556.275 116.156V169.494H517.893Z" fill="#42AB75"/>
<path d="M110.032 263.675C109.325 263.676 108.642 263.416 108.115 262.945C107.587 262.474 107.252 261.825 107.173 261.122L78.3478 5.61205C78.309 4.876 78.5529 4.15296 79.0296 3.5908C79.5063 3.02863 80.1797 2.66983 80.9122 2.58779C81.6447 2.50575 82.3808 2.70667 82.9701 3.14945C83.5593 3.59223 83.9571 4.24341 84.0822 4.9698L112.892 260.464C112.978 261.224 112.759 261.988 112.283 262.587C111.807 263.186 111.113 263.572 110.353 263.66L110.032 263.675Z" fill="#8C9EA5"/>
<path d="M188.034 263.675C187.327 263.676 186.644 263.416 186.117 262.945C185.589 262.474 185.254 261.825 185.175 261.122L156.35 5.61205C156.311 4.876 156.555 4.15296 157.032 3.5908C157.508 3.02863 158.182 2.66983 158.914 2.58779C159.647 2.50575 160.383 2.70667 160.972 3.14945C161.561 3.59223 161.959 4.24341 162.084 4.9698L190.894 260.464C190.938 260.841 190.908 261.223 190.804 261.588C190.701 261.953 190.526 262.294 190.29 262.591C190.054 262.888 189.762 263.135 189.43 263.319C189.097 263.502 188.732 263.618 188.355 263.66L188.034 263.675Z" fill="#8C9EA5"/>
<path d="M162.223 34.8346H84.2347C83.5065 34.7815 82.8254 34.4548 82.3282 33.9201C81.831 33.3853 81.5547 32.6822 81.5547 31.9521C81.5547 31.2219 81.831 30.5188 82.3282 29.9841C82.8254 29.4494 83.5065 29.1227 84.2347 29.0696H162.223C162.619 29.0407 163.017 29.0938 163.391 29.2256C163.766 29.3574 164.11 29.565 164.401 29.8355C164.692 30.106 164.924 30.4335 165.082 30.7977C165.241 31.1619 165.323 31.5548 165.323 31.9521C165.323 32.3493 165.241 32.7423 165.082 33.1065C164.924 33.4706 164.692 33.7982 164.401 34.0687C164.11 34.3392 163.766 34.5468 163.391 34.6786C163.017 34.8104 162.619 34.8635 162.223 34.8346Z" fill="#8C9EA5"/>
<path d="M163.859 60.173H87.4764C86.7139 60.173 85.9827 59.8701 85.4436 59.331C84.9044 58.7918 84.6016 58.0606 84.6016 57.2981C84.6016 56.5357 84.9044 55.8044 85.4436 55.2653C85.9827 54.7262 86.7139 54.4233 87.4764 54.4233H163.859C164.621 54.4233 165.352 54.7262 165.891 55.2653C166.431 55.8044 166.733 56.5357 166.733 57.2981C166.733 58.0606 166.431 58.7918 165.891 59.331C165.352 59.8701 164.621 60.173 163.859 60.173Z" fill="#8C9EA5"/>
<path d="M165.481 85.5266H90.7347C90.0065 85.4735 89.3254 85.1468 88.8282 84.6121C88.331 84.0774 88.0547 83.3743 88.0547 82.6441C88.0547 81.914 88.331 81.2109 88.8282 80.6762C89.3254 80.1414 90.0065 79.8147 90.7347 79.7616H165.481C165.877 79.7328 166.275 79.7859 166.65 79.9176C167.024 80.0494 167.368 80.257 167.659 80.5275C167.95 80.798 168.182 81.1256 168.34 81.4897C168.499 81.8539 168.581 82.2469 168.581 82.6441C168.581 83.0414 168.499 83.4343 168.34 83.7985C168.182 84.1627 167.95 84.4903 167.659 84.7607C167.368 85.0312 167.024 85.2388 166.65 85.3706C166.275 85.5024 165.877 85.5555 165.481 85.5266Z" fill="#8C9EA5"/>
<path d="M170.802 110.88H94.1293C93.401 110.827 92.7199 110.501 92.2227 109.966C91.7256 109.431 91.4492 108.728 91.4492 107.998C91.4492 107.268 91.7256 106.565 92.2227 106.03C92.7199 105.495 93.401 105.168 94.1293 105.115H170.817C171.213 105.086 171.611 105.14 171.986 105.271C172.361 105.403 172.704 105.611 172.995 105.881C173.286 106.152 173.518 106.479 173.677 106.843C173.836 107.208 173.918 107.601 173.918 107.998C173.918 108.395 173.836 108.788 173.677 109.152C173.518 109.516 173.286 109.844 172.995 110.114C172.704 110.385 172.361 110.593 171.986 110.724C171.611 110.856 171.213 110.909 170.817 110.88H170.802Z" fill="#8C9EA5"/>
<path d="M173.647 136.234H96.4847C95.7565 136.181 95.0754 135.854 94.5782 135.32C94.081 134.785 93.8047 134.082 93.8047 133.352C93.8047 132.621 94.081 131.918 94.5782 131.384C95.0754 130.849 95.7565 130.522 96.4847 130.469H173.647C174.375 130.522 175.056 130.849 175.553 131.384C176.051 131.918 176.327 132.621 176.327 133.352C176.327 134.082 176.051 134.785 175.553 135.32C175.056 135.854 174.375 136.181 173.647 136.234Z" fill="#8C9EA5"/>
<path d="M176.521 161.588H99.3131C98.9169 161.617 98.5191 161.563 98.1443 161.432C97.7696 161.3 97.426 161.092 97.1351 160.822C96.8442 160.551 96.6121 160.224 96.4535 159.86C96.2948 159.495 96.2129 159.102 96.2129 158.705C96.2129 158.308 96.2948 157.915 96.4535 157.551C96.6121 157.187 96.8442 156.859 97.1351 156.589C97.426 156.318 97.7696 156.11 98.1443 155.979C98.5191 155.847 98.9169 155.794 99.3131 155.823H176.521C176.917 155.794 177.315 155.847 177.69 155.979C178.065 156.11 178.408 156.318 178.699 156.589C178.99 156.859 179.222 157.187 179.381 157.551C179.539 157.915 179.621 158.308 179.621 158.705C179.621 159.102 179.539 159.495 179.381 159.86C179.222 160.224 178.99 160.551 178.699 160.822C178.408 161.092 178.065 161.3 177.69 161.432C177.315 161.563 176.917 161.617 176.521 161.588Z" fill="#8C9EA5"/>
<path d="M159.792 10.5819H75.9472C75.2524 10.5819 74.5644 10.445 73.9224 10.1791C73.2805 9.91323 72.6972 9.5235 72.2059 9.03219C71.7146 8.54088 71.3249 7.95763 71.059 7.3157C70.7931 6.67377 70.6562 5.98574 70.6562 5.29093C70.6562 4.59611 70.7931 3.9081 71.059 3.26618C71.3249 2.62425 71.7146 2.04099 72.2059 1.54968C72.6972 1.05837 73.2805 0.668628 73.9224 0.402733C74.5644 0.136839 75.2524 0 75.9472 0H159.792C161.195 0 162.541 0.55744 163.533 1.54968C164.525 2.54193 165.083 3.88768 165.083 5.29093C165.083 5.98574 164.946 6.67377 164.68 7.3157C164.414 7.95763 164.024 8.54088 163.533 9.03219C163.042 9.5235 162.458 9.91323 161.817 10.1791C161.175 10.445 160.487 10.5819 159.792 10.5819Z" fill="#B0BEC5"/>
<path d="M126.928 263.675H126.592C125.832 263.587 125.138 263.201 124.662 262.602C124.186 262.003 123.967 261.24 124.054 260.479L152.878 4.98507C152.964 4.22667 153.347 3.53317 153.943 3.05713C154.54 2.58108 155.301 2.36147 156.059 2.44663C156.817 2.5318 157.511 2.91477 157.987 3.51126C158.463 4.10776 158.683 4.86892 158.598 5.62732L129.788 261.122C129.706 261.823 129.369 262.47 128.843 262.941C128.316 263.411 127.635 263.673 126.928 263.675Z" fill="#B0BEC5"/>
<path d="M48.9111 263.675H48.59C47.83 263.587 47.136 263.201 46.6602 262.602C46.1844 262.003 45.9655 261.24 46.0516 260.479L74.8612 4.96983C74.9862 4.24344 75.384 3.59226 75.9732 3.14948C76.5625 2.7067 77.2986 2.50578 78.0311 2.58782C78.7636 2.66986 79.4371 3.02866 79.9138 3.59083C80.3905 4.15299 80.6344 4.87603 80.5956 5.61208L51.7707 261.122C51.6949 261.826 51.3605 262.477 50.8323 262.949C50.304 263.42 49.6194 263.679 48.9111 263.675Z" fill="#B0BEC5"/>
<path d="M152.726 34.8346H74.7387C74.0104 34.7815 73.3293 34.4548 72.8321 33.9201C72.3349 33.3853 72.0586 32.6822 72.0586 31.9521C72.0586 31.2219 72.3349 30.5188 72.8321 29.9841C73.3293 29.4494 74.0104 29.1227 74.7387 29.0696H152.726C153.123 29.0407 153.521 29.0938 153.895 29.2256C154.27 29.3574 154.614 29.565 154.905 29.8355C155.195 30.106 155.427 30.4335 155.586 30.7977C155.745 31.1619 155.827 31.5548 155.827 31.9521C155.827 32.3493 155.745 32.7423 155.586 33.1065C155.427 33.4706 155.195 33.7982 154.905 34.0687C154.614 34.3392 154.27 34.5468 153.895 34.6786C153.521 34.8104 153.123 34.8635 152.726 34.8346Z" fill="#B0BEC5"/>
<path d="M149.468 60.173H73.1014C72.339 60.173 71.6077 59.8701 71.0686 59.331C70.5295 58.7918 70.2266 58.0606 70.2266 57.2981C70.2266 56.5357 70.5295 55.8044 71.0686 55.2653C71.6077 54.7262 72.339 54.4233 73.1014 54.4233H149.468C150.231 54.4233 150.962 54.7262 151.501 55.2653C152.04 55.8044 152.343 56.5357 152.343 57.2981C152.343 58.0606 152.04 58.7918 151.501 59.331C150.962 59.8701 150.231 60.173 149.468 60.173Z" fill="#B0BEC5"/>
<path d="M146.213 85.5266H71.4672C70.7389 85.4735 70.0578 85.1468 69.5606 84.6121C69.0635 84.0774 68.7871 83.3743 68.7871 82.6441C68.7871 81.914 69.0635 81.2109 69.5606 80.6762C70.0578 80.1415 70.7389 79.8147 71.4672 79.7617H146.213C146.941 79.8147 147.622 80.1415 148.12 80.6762C148.617 81.2109 148.893 81.914 148.893 82.6441C148.893 83.3743 148.617 84.0774 148.12 84.6121C147.622 85.1468 146.941 85.4735 146.213 85.5266Z" fill="#B0BEC5"/>
<path d="M142.833 110.88H66.1449C65.4167 110.827 64.7355 110.501 64.2384 109.966C63.7412 109.431 63.4648 108.728 63.4648 107.998C63.4648 107.268 63.7412 106.565 64.2384 106.03C64.7355 105.495 65.4167 105.168 66.1449 105.115H142.833C143.561 105.168 144.242 105.495 144.739 106.03C145.237 106.565 145.513 107.268 145.513 107.998C145.513 108.728 145.237 109.431 144.739 109.966C144.242 110.501 143.561 110.827 142.833 110.88Z" fill="#B0BEC5"/>
<path d="M140.464 136.234H63.3168C62.5886 136.181 61.9074 135.854 61.4102 135.32C60.9131 134.785 60.6367 134.082 60.6367 133.352C60.6367 132.621 60.9131 131.918 61.4102 131.384C61.9074 130.849 62.5886 130.522 63.3168 130.469H140.464C140.86 130.44 141.258 130.493 141.632 130.625C142.007 130.757 142.351 130.964 142.642 131.235C142.933 131.505 143.165 131.833 143.323 132.197C143.482 132.561 143.564 132.954 143.564 133.352C143.564 133.749 143.482 134.142 143.323 134.506C143.165 134.87 142.933 135.198 142.642 135.468C142.351 135.739 142.007 135.946 141.632 136.078C141.258 136.21 140.86 136.263 140.464 136.234Z" fill="#B0BEC5"/>
<path d="M137.633 161.588H60.4867C59.7585 161.535 59.0773 161.208 58.5802 160.673C58.083 160.138 57.8066 159.435 57.8066 158.705C57.8066 157.975 58.083 157.272 58.5802 156.737C59.0773 156.203 59.7585 155.876 60.4867 155.823H137.695C138.091 155.794 138.489 155.847 138.863 155.979C139.238 156.11 139.582 156.318 139.873 156.589C140.164 156.859 140.396 157.187 140.554 157.551C140.713 157.915 140.795 158.308 140.795 158.705C140.795 159.102 140.713 159.495 140.554 159.86C140.396 160.224 140.164 160.551 139.873 160.822C139.582 161.092 139.238 161.3 138.863 161.432C138.489 161.563 138.091 161.617 137.695 161.588H137.633Z" fill="#B0BEC5"/>
<path d="M209.885 190.611L305.382 127.579L313.028 122.502L307.951 114.856L291.941 90.5882L289.28 86.5665L284.478 86.4442L129.634 82.3307L126.729 82.239L124.298 83.8599L109.48 93.6466L101.834 98.7234L106.926 106.369L152.801 175.809L115.291 200.551L107.645 205.643L112.722 213.289L126.714 234.483L131.806 242.129L139.452 237.037L176.947 212.295L187.208 227.832L192.3 235.477L199.946 230.385L217.577 218.748L225.223 213.671L220.131 206.026L209.885 190.611ZM164.576 121.967L230.223 124.612L185.724 154.003L164.576 121.967Z" fill="#42AB75"/>
<path d="M75.4861 230.401C69.2699 230.558 63.3613 233.138 59.0204 237.59C54.6795 242.042 52.25 248.015 52.25 254.233C52.25 260.451 54.6795 266.423 59.0204 270.875C63.3613 275.327 69.2699 277.907 75.4861 278.065H277.031V230.401H75.4861Z" fill="#B0BEC5"/>
<path style="mix-blend-mode:multiply" d="M75.4861 230.401C69.2699 230.558 63.3613 233.138 59.0204 237.59C54.6795 242.042 52.25 248.015 52.25 254.233C52.25 260.451 54.6795 266.423 59.0204 270.875C63.3613 275.327 69.2699 277.907 75.4861 278.065H277.031V230.401H75.4861Z" fill="url(#paint3_linear_1_4123)"/>
<path d="M286.084 276.226C298.259 271.238 304.086 257.323 299.097 245.148C294.108 232.972 280.194 227.146 268.018 232.135C255.843 237.123 250.017 251.038 255.005 263.213C259.994 275.389 273.908 281.215 286.084 276.226Z" fill="#CFD8DC"/>
<path d="M277.034 271.398C286.518 271.398 294.207 263.709 294.207 254.225C294.207 244.741 286.518 237.052 277.034 237.052C267.55 237.052 259.861 244.741 259.861 254.225C259.861 263.709 267.55 271.398 277.034 271.398Z" fill="#B0BEC5"/>
<path style="mix-blend-mode:multiply" d="M277.034 271.398C286.518 271.398 294.207 263.709 294.207 254.225C294.207 244.741 286.518 237.052 277.034 237.052C267.55 237.052 259.861 244.741 259.861 254.225C259.861 263.709 267.55 271.398 277.034 271.398Z" fill="url(#paint4_linear_1_4123)"/>
<path d="M49.783 187.966C43.5668 188.123 37.6581 190.703 33.3173 195.156C28.9764 199.608 26.5469 205.58 26.5469 211.798C26.5469 218.016 28.9764 223.988 33.3173 228.441C37.6581 232.893 43.5668 235.473 49.783 235.63H251.328V187.966H49.783Z" fill="#B0BEC5"/>
<path style="mix-blend-mode:multiply" d="M49.783 187.966C43.5668 188.123 37.6581 190.703 33.3173 195.156C28.9764 199.608 26.5469 205.58 26.5469 211.798C26.5469 218.016 28.9764 223.988 33.3173 228.441C37.6581 232.893 43.5668 235.473 49.783 235.63H251.328V187.966H49.783Z" fill="url(#paint5_linear_1_4123)"/>
<path d="M268.202 228.651C277.506 219.346 277.506 204.262 268.202 194.958C258.898 185.654 243.813 185.654 234.509 194.958C225.205 204.262 225.205 219.347 234.509 228.651C243.813 237.955 258.898 237.955 268.202 228.651Z" fill="#CFD8DC"/>
<path d="M251.36 228.978C260.844 228.978 268.533 221.29 268.533 211.806C268.533 202.322 260.844 194.633 251.36 194.633C241.876 194.633 234.188 202.322 234.188 211.806C234.188 221.29 241.876 228.978 251.36 228.978Z" fill="#B0BEC5"/>
<path style="mix-blend-mode:multiply" d="M251.36 228.978C260.844 228.978 268.533 221.29 268.533 211.806C268.533 202.322 260.844 194.633 251.36 194.633C241.876 194.633 234.188 202.322 234.188 211.806C234.188 221.29 241.876 228.978 251.36 228.978Z" fill="url(#paint6_linear_1_4123)"/>
<path d="M23.2361 230.401C17.0199 230.558 11.1113 233.138 6.7704 237.59C2.42953 242.042 0 248.015 0 254.233C0 260.451 2.42953 266.423 6.7704 270.875C11.1113 275.327 17.0199 277.907 23.2361 278.065H224.781V230.401H23.2361Z" fill="#B0BEC5"/>
<path d="M234.055 276.196C246.173 271.07 251.841 257.09 246.715 244.972C241.589 232.854 227.609 227.186 215.491 232.312C203.373 237.439 197.705 251.418 202.831 263.537C207.957 275.655 221.937 281.323 234.055 276.196Z" fill="#CFD8DC"/>
<path d="M224.782 271.398C234.266 271.398 241.955 263.709 241.955 254.225C241.955 244.741 234.266 237.052 224.782 237.052C215.298 237.052 207.609 244.741 207.609 254.225C207.609 263.709 215.298 271.398 224.782 271.398Z" fill="#B0BEC5"/>
<path style="mix-blend-mode:multiply" d="M224.782 271.398C234.266 271.398 241.955 263.709 241.955 254.225C241.955 244.741 234.266 237.052 224.782 237.052C215.298 237.052 207.609 244.741 207.609 254.225C207.609 263.709 215.298 271.398 224.782 271.398Z" fill="url(#paint7_linear_1_4123)"/>
<path d="M654.249 231.287V175.075C654.249 171.42 650.778 168.454 646.481 168.454H590.942C586.645 168.454 583.158 171.42 583.158 175.075V231.287C583.253 234.451 584.185 237.533 585.858 240.219C587.532 242.905 589.887 245.1 592.685 246.579L610.377 256.825C612.92 258.253 615.788 259.003 618.704 259.003C621.62 259.003 624.487 258.253 627.03 256.825L644.738 246.579C647.532 245.096 649.883 242.901 651.554 240.215C653.224 237.529 654.154 234.449 654.249 231.287Z" fill="#90A4AE"/>
<path style="mix-blend-mode:multiply" d="M618.222 168.454V197.508C618.182 198.312 618.305 199.115 618.584 199.869C618.863 200.624 619.293 201.314 619.848 201.897C620.402 202.48 621.069 202.944 621.808 203.261C622.547 203.579 623.344 203.742 624.148 203.742C624.953 203.742 625.749 203.579 626.488 203.261C627.227 202.944 627.894 202.48 628.449 201.897C629.003 201.314 629.433 200.624 629.712 199.869C629.991 199.115 630.114 198.312 630.074 197.508V168.454H618.222Z" fill="url(#paint8_linear_1_4123)"/>
<path d="M624.629 57.2982V197.569C624.629 199.14 624.006 200.647 622.896 201.759C621.787 202.871 620.282 203.498 618.711 203.502C617.14 203.498 615.635 202.871 614.525 201.759C613.416 200.647 612.793 199.14 612.793 197.569V57.2982H624.629Z" fill="#37474F"/>
<path style="mix-blend-mode:multiply" d="M615.744 202.692C616.643 203.218 617.665 203.497 618.707 203.501C619.748 203.504 620.772 203.232 621.675 202.711C622.577 202.191 623.325 201.441 623.844 200.538C624.363 199.635 624.634 198.611 624.629 197.569V57.2982H618.711V197.569C618.713 198.609 618.439 199.631 617.918 200.531C617.397 201.43 616.647 202.176 615.744 202.692Z" fill="url(#paint9_linear_1_4123)"/>
<path d="M647.521 6.59069V31.9444C647.61 35.7846 646.93 39.6037 645.521 43.1774C644.113 46.7511 642.004 50.0072 639.319 52.7545C636.635 55.5017 633.428 57.6847 629.888 59.175C626.348 60.6654 622.545 61.4332 618.704 61.4332C614.863 61.4332 611.06 60.6654 607.52 59.175C603.98 57.6847 600.773 55.5017 598.088 52.7545C595.403 50.0072 593.295 46.7511 591.886 43.1774C590.478 39.6037 589.798 35.7846 589.887 31.9444V6.59069C589.891 5.67272 590.258 4.79371 590.909 4.14603C591.559 3.49836 592.44 3.13476 593.358 3.13477H644.065C644.982 3.13477 645.861 3.49885 646.509 4.14697C647.157 4.79508 647.521 5.67412 647.521 6.59069ZM596.829 31.9444C596.829 37.748 599.134 43.3139 603.238 47.4176C607.342 51.5214 612.908 53.8269 618.711 53.8269C624.515 53.8269 630.081 51.5214 634.185 47.4176C638.288 43.3139 640.594 37.748 640.594 31.9444V10.0619H596.829V31.9444Z" fill="#37474F"/>
<path d="M630.884 0.733978H605.561C604.471 0.733978 603.588 1.61715 603.588 2.7066V10.6736C603.588 11.7631 604.471 12.6462 605.561 12.6462H630.884C631.973 12.6462 632.856 11.7631 632.856 10.6736V2.7066C632.856 1.61715 631.973 0.733978 630.884 0.733978Z" fill="url(#paint10_linear_1_4123)"/>
<path style="mix-blend-mode:multiply" d="M585.207 239.117C586.968 242.247 589.554 244.834 592.685 246.594L610.377 256.84C612.92 258.268 615.787 259.018 618.704 259.018C621.62 259.018 624.487 258.268 627.03 256.84L644.738 246.594C647.868 244.834 650.455 242.247 652.215 239.117C647.322 226.883 634.171 218.091 618.711 218.091C603.251 218.091 590.1 226.868 585.207 239.117Z" fill="url(#paint11_linear_1_4123)"/>
<path d="M396.28 269.654C387.105 269.654 382.716 258.216 389.674 252.283C390.739 251.371 391.903 250.581 393.145 249.928C395.66 248.669 398.409 247.946 401.218 247.807C404.027 247.667 406.834 248.114 409.461 249.118C411.124 249.732 412.924 249.88 414.665 249.546C416.406 249.212 418.022 248.408 419.34 247.221C423.535 243.681 428.822 241.694 434.31 241.594C439.523 241.576 444.698 242.471 449.602 244.24C451.577 244.885 453.705 244.89 455.683 244.253C457.66 243.615 459.386 242.369 460.612 240.692C471.316 226.027 488.81 216.73 506.839 213.411C517.742 211.408 529.272 211.408 539.624 215.415C547.477 218.386 554.127 223.87 558.54 231.012C559.596 232.753 561.162 234.126 563.024 234.947C564.887 235.767 566.957 235.995 568.954 235.6C572.953 234.892 577.066 235.177 580.929 236.43C584.792 237.683 588.289 239.866 591.112 242.787C592.606 244.435 594.609 245.536 596.801 245.912C598.993 246.289 601.249 245.921 603.207 244.867C606.691 242.788 610.626 241.582 614.676 241.349C617.016 241.281 619.344 241.711 621.506 242.61C623.668 243.508 625.614 244.856 627.215 246.564C628.448 247.872 629.986 248.853 631.692 249.419C633.397 249.984 635.217 250.118 636.987 249.806C639.765 249.357 642.613 249.852 645.076 251.213L645.214 251.289C653.884 256.351 650.077 269.716 640.03 269.716L396.28 269.654Z" fill="#CFD8DC"/>
<path style="mix-blend-mode:multiply" d="M396.28 269.654C387.105 269.654 382.716 258.216 389.674 252.283C390.739 251.371 391.903 250.581 393.145 249.928C395.66 248.669 398.409 247.946 401.218 247.807C404.027 247.667 406.834 248.114 409.461 249.118C411.124 249.732 412.924 249.88 414.665 249.546C416.406 249.212 418.022 248.408 419.34 247.221C423.535 243.681 428.822 241.694 434.31 241.594C439.523 241.576 444.698 242.471 449.602 244.24C451.577 244.885 453.705 244.89 455.683 244.253C457.66 243.615 459.386 242.369 460.612 240.692C471.316 226.027 488.81 216.73 506.839 213.411C517.742 211.408 529.272 211.408 539.624 215.415C547.477 218.386 554.127 223.87 558.54 231.012C559.596 232.753 561.162 234.126 563.024 234.947C564.887 235.767 566.957 235.995 568.954 235.6C572.953 234.892 577.066 235.177 580.929 236.43C584.792 237.683 588.289 239.866 591.112 242.787C592.606 244.435 594.609 245.536 596.801 245.912C598.993 246.289 601.249 245.921 603.207 244.867C606.691 242.788 610.626 241.582 614.676 241.349C617.016 241.281 619.344 241.711 621.506 242.61C623.668 243.508 625.614 244.856 627.215 246.564C628.448 247.872 629.986 248.853 631.692 249.419C633.397 249.984 635.217 250.118 636.987 249.806C639.765 249.357 642.613 249.852 645.076 251.213L645.214 251.289C653.884 256.351 650.077 269.716 640.03 269.716L396.28 269.654Z" fill="url(#paint12_linear_1_4123)"/>
<path d="M655.352 259.287H380.896C378.658 259.287 376.844 261.101 376.844 263.339V274.013C376.844 276.251 378.658 278.065 380.896 278.065H655.352C657.59 278.065 659.404 276.251 659.404 274.013V263.339C659.404 261.101 657.59 259.287 655.352 259.287Z" fill="#455A64"/>
<path d="M42.5081 172.923L30.9629 172.945L31.1944 293.52L42.7396 293.498L42.5081 172.923Z" fill="#37474F"/>
<path d="M22.6699 288.509V289.824C22.6699 290.81 23.0614 291.755 23.7583 292.452C24.4551 293.149 25.4003 293.54 26.3858 293.54H47.5496C48.0368 293.54 48.5193 293.444 48.9693 293.257C49.4192 293.07 49.8279 292.796 50.1717 292.451C50.5155 292.106 50.7878 291.696 50.9729 291.245C51.1579 290.794 51.2522 290.311 51.2502 289.824V288.494L22.6699 288.509Z" fill="#37474F"/>
<path d="M42.7174 282.928L31.1874 282.943L22.6699 288.509L51.2502 288.448L42.7174 282.928Z" fill="#455A64"/>
<path style="mix-blend-mode:multiply" d="M42.7178 282.928L42.4272 172.934H38.1914L38.4667 282.912L42.5954 288.448V289.778C42.5954 290.764 42.2039 291.709 41.5071 292.406C40.8102 293.103 39.865 293.494 38.8795 293.494H47.5499C48.0372 293.494 48.5197 293.398 48.9697 293.211C49.4196 293.024 49.8283 292.75 50.1721 292.405C50.5159 292.06 50.7882 291.65 50.9733 291.199C51.1583 290.748 51.2526 290.266 51.2506 289.778V288.448L42.7178 282.928Z" fill="url(#paint13_linear_1_4123)"/>
<path d="M50.5159 159.049C50.5128 156.302 49.6952 153.618 48.1663 151.336C46.6374 149.054 44.466 147.277 41.9268 146.229C39.3876 145.182 36.5948 144.911 33.9016 145.451C31.2083 145.991 28.7358 147.317 26.7967 149.263C24.8576 151.208 23.5391 153.685 23.0081 156.38C22.477 159.075 22.7572 161.867 23.8133 164.403C24.8694 166.939 26.6538 169.104 28.9408 170.625C31.2279 172.147 33.9147 172.956 36.6616 172.949C40.3414 172.941 43.8676 171.473 46.4653 168.866C49.0631 166.26 50.5199 162.729 50.5159 159.049Z" fill="url(#paint14_linear_1_4123)"/>
<g style="mix-blend-mode:soft-light" opacity="0.5">
<path d="M33.481 152.275C33.484 152.796 33.3324 153.306 33.0452 153.74C32.758 154.175 32.3483 154.514 31.868 154.716C31.3877 154.917 30.8584 154.972 30.3471 154.872C29.8359 154.772 29.3659 154.523 28.9965 154.156C28.6271 153.788 28.3751 153.32 28.2724 152.809C28.1696 152.298 28.2208 151.769 28.4194 151.287C28.6181 150.806 28.9552 150.394 29.388 150.105C29.8209 149.815 30.33 149.66 30.8508 149.66C31.5457 149.66 32.2124 149.935 32.7053 150.425C33.1981 150.915 33.477 151.58 33.481 152.275Z" fill="white"/>
</g>
<path style="mix-blend-mode:multiply" d="M36.6326 172.95C40.2978 172.921 43.8028 171.443 46.3816 168.839C48.9604 166.234 50.4034 162.715 50.3952 159.049C50.3939 156.663 49.7721 154.318 48.5908 152.245L29.9043 171.176C31.9602 172.328 34.2757 172.939 36.6326 172.95Z" fill="url(#paint15_linear_1_4123)"/>
<path d="M678.604 176.595L667.41 176.616L667.632 292.298L678.826 292.277L678.604 176.595Z" fill="#37474F"/>
<path d="M659.371 287.469V288.769C659.375 289.724 659.757 290.638 660.434 291.311C661.11 291.985 662.025 292.363 662.98 292.363H683.501C684.46 292.359 685.378 291.975 686.054 291.296C686.731 290.617 687.11 289.697 687.11 288.739V287.454L659.371 287.469Z" fill="#37474F"/>
<path d="M678.822 282.056L667.629 282.071L659.371 287.469L687.11 287.408L678.822 282.056Z" fill="#455A64"/>
<path style="mix-blend-mode:multiply" d="M678.961 282.056L678.685 176.635H674.557L674.832 282.056L678.838 287.423V288.769C678.84 289.243 678.749 289.713 678.57 290.151C678.39 290.59 678.126 290.989 677.792 291.325C677.458 291.662 677.062 291.929 676.625 292.113C676.188 292.296 675.719 292.391 675.245 292.393H683.64C684.598 292.389 685.516 292.006 686.193 291.326C686.869 290.647 687.249 289.728 687.249 288.769V287.485L678.961 282.056Z" fill="url(#paint16_linear_1_4123)"/>
<path d="M686.393 163.148C686.387 160.483 685.591 157.88 684.106 155.668C682.62 153.456 680.512 151.734 678.049 150.72C675.585 149.706 672.875 149.445 670.263 149.971C667.651 150.497 665.253 151.785 663.374 153.674C661.494 155.562 660.216 157.965 659.702 160.58C659.188 163.194 659.461 165.903 660.486 168.362C661.512 170.821 663.243 172.921 665.462 174.397C667.681 175.872 670.287 176.656 672.952 176.65C674.722 176.648 676.474 176.297 678.107 175.617C679.741 174.937 681.225 173.941 682.474 172.687C683.722 171.433 684.711 169.945 685.384 168.308C686.056 166.671 686.399 164.917 686.393 163.148Z" fill="url(#paint17_linear_1_4123)"/>
<path style="mix-blend-mode:multiply" d="M672.921 176.65C675.269 176.639 677.573 176.014 679.605 174.838C681.638 173.661 683.327 171.974 684.506 169.943C685.685 167.913 686.313 165.609 686.328 163.261C686.342 160.913 685.742 158.602 684.588 156.557L666.238 174.907C668.279 176.053 670.58 176.654 672.921 176.65Z" fill="url(#paint18_linear_1_4123)"/>
<g style="mix-blend-mode:soft-light" opacity="0.5">
<path d="M671.024 156.587C671.024 157.089 670.876 157.579 670.597 157.996C670.319 158.413 669.924 158.738 669.461 158.931C668.998 159.124 668.488 159.175 667.996 159.078C667.504 158.981 667.052 158.741 666.696 158.388C666.341 158.034 666.098 157.583 665.998 157.092C665.898 156.6 665.946 156.091 666.136 155.626C666.326 155.162 666.649 154.765 667.064 154.484C667.48 154.203 667.969 154.052 668.47 154.049C668.805 154.047 669.137 154.111 669.446 154.238C669.756 154.364 670.038 154.551 670.275 154.787C670.513 155.023 670.701 155.303 670.829 155.612C670.958 155.921 671.024 156.253 671.024 156.587Z" fill="white"/>
</g>
<path d="M688.882 176.591L20.8945 177.873L20.943 203.12L688.93 201.837L688.882 176.591Z" fill="#FFD740"/>
<path d="M49.6586 177.828L24.4578 203.135H20.9255L20.9102 188.807L31.8132 177.873L49.6586 177.828Z" fill="#263238"/>
<path d="M83.1338 177.766L57.9177 203.074L40.0723 203.105L65.2731 177.812L83.1338 177.766Z" fill="#263238"/>
<path d="M116.591 177.705L91.3901 203.013L73.5293 203.044L98.7454 177.736L116.591 177.705Z" fill="#263238"/>
<path d="M150.065 177.644L124.849 202.937L107.004 202.982L132.205 177.675L150.065 177.644Z" fill="#263238"/>
<path d="M183.524 177.583L158.324 202.875L140.463 202.921L165.679 177.614L183.524 177.583Z" fill="#263238"/>
<path d="M216.997 177.522L191.781 202.814L173.936 202.845L199.136 177.552L216.997 177.522Z" fill="#263238"/>
<path d="M250.456 177.461L225.255 202.753L207.395 202.784L232.611 177.491L250.456 177.461Z" fill="#263238"/>
<path d="M283.931 177.399L258.715 202.692L240.869 202.722L266.07 177.43L283.931 177.399Z" fill="#263238"/>
<path d="M317.39 177.338L292.189 202.631L274.328 202.661L299.544 177.369L317.39 177.338Z" fill="#263238"/>
<path d="M350.862 177.277L325.646 202.57L307.801 202.6L333.002 177.308L350.862 177.277Z" fill="#263238"/>
<path d="M384.319 177.216L359.119 202.508L341.258 202.539L366.474 177.246L384.319 177.216Z" fill="#263238"/>
<path d="M417.792 177.139L392.576 202.447L374.73 202.478L399.931 177.185L417.792 177.139Z" fill="#263238"/>
<path d="M451.251 177.078L426.05 202.386L408.189 202.417L433.406 177.124L451.251 177.078Z" fill="#263238"/>
<path d="M484.726 177.017L459.51 202.325L441.664 202.355L466.865 177.048L484.726 177.017Z" fill="#263238"/>
<path d="M518.183 176.956L492.982 202.264L475.121 202.294L500.337 176.986L518.183 176.956Z" fill="#263238"/>
<path d="M551.657 176.895L526.441 202.187L508.596 202.233L533.812 176.925L551.657 176.895Z" fill="#263238"/>
<path d="M585.132 176.834L559.931 202.126L542.07 202.172L567.271 176.864L585.132 176.834Z" fill="#263238"/>
<path d="M618.591 176.772L593.39 202.065L575.529 202.096L600.745 176.803L618.591 176.772Z" fill="#263238"/>
<path d="M652.061 176.711L626.861 202.004L609 202.034L634.201 176.742L652.061 176.711Z" fill="#263238"/>
<path d="M685.52 176.65L660.32 201.943L642.459 201.973L667.675 176.681L685.52 176.65Z" fill="#263238"/>
<path d="M688.901 188.899L688.916 201.881L675.918 201.912L688.901 188.899Z" fill="#263238"/>
<path style="mix-blend-mode:multiply" d="M688.905 189.038L20.918 190.321L20.9425 203.12L688.93 201.837L688.905 189.038Z" fill="url(#paint19_linear_1_4123)"/>
<defs>
<linearGradient id="paint0_linear_1_4123" x1="377.606" y1="267.773" x2="377.606" y2="-113.755" gradientUnits="userSpaceOnUse">
<stop stop-color="white" stop-opacity="0"/>
<stop offset="1" stop-color="#90A4AE"/>
</linearGradient>
<linearGradient id="paint1_linear_1_4123" x1="323.58" y1="241.732" x2="354.943" y2="246.09" gradientUnits="userSpaceOnUse">
<stop stop-color="white" stop-opacity="0"/>
<stop offset="1"/>
</linearGradient>
<linearGradient id="paint2_linear_1_4123" x1="348.905" y1="239.163" x2="280.459" y2="251.702" gradientUnits="userSpaceOnUse">
<stop stop-color="white" stop-opacity="0"/>
<stop offset="1" stop-color="white"/>
</linearGradient>
<linearGradient id="paint3_linear_1_4123" x1="164.346" y1="215.063" x2="164.346" y2="265.174" gradientUnits="userSpaceOnUse">
<stop stop-color="white" stop-opacity="0"/>
<stop offset="1" stop-color="#B0BEC5"/>
</linearGradient>
<linearGradient id="paint4_linear_1_4123" x1="319.912" y1="254.225" x2="258.011" y2="254.225" gradientUnits="userSpaceOnUse">
<stop stop-color="white" stop-opacity="0"/>
<stop offset="1" stop-color="#B0BEC5"/>
</linearGradient>
<linearGradient id="paint5_linear_1_4123" x1="138.674" y1="185.137" x2="138.674" y2="245.172" gradientUnits="userSpaceOnUse">
<stop stop-color="white" stop-opacity="0"/>
<stop offset="1" stop-color="#B0BEC5"/>
</linearGradient>
<linearGradient id="paint6_linear_1_4123" x1="294.223" y1="211.806" x2="232.322" y2="211.806" gradientUnits="userSpaceOnUse">
<stop stop-color="white" stop-opacity="0"/>
<stop offset="1" stop-color="#B0BEC5"/>
</linearGradient>
<linearGradient id="paint7_linear_1_4123" x1="267.66" y1="254.225" x2="205.744" y2="254.225" gradientUnits="userSpaceOnUse">
<stop stop-color="white" stop-opacity="0"/>
<stop offset="1" stop-color="#B0BEC5"/>
</linearGradient>
<linearGradient id="paint8_linear_1_4123" x1="624.14" y1="203.502" x2="624.14" y2="168.454" gradientUnits="userSpaceOnUse">
<stop stop-color="white" stop-opacity="0"/>
<stop offset="1"/>
</linearGradient>
<linearGradient id="paint9_linear_1_4123" x1="589.656" y1="126.096" x2="659.555" y2="135.546" gradientUnits="userSpaceOnUse">
<stop stop-color="white" stop-opacity="0"/>
<stop offset="1"/>
</linearGradient>
<linearGradient id="paint10_linear_1_4123" x1="618.222" y1="0.733978" x2="627.352" y2="20.8342" gradientUnits="userSpaceOnUse">
<stop stop-color="#42AB75"/>
<stop offset="1" stop-color="#1C2467"/>
</linearGradient>
<linearGradient id="paint11_linear_1_4123" x1="619.002" y1="241.655" x2="612.87" y2="187.568" gradientUnits="userSpaceOnUse">
<stop stop-color="white" stop-opacity="0"/>
<stop offset="1"/>
</linearGradient>
<linearGradient id="paint12_linear_1_4123" x1="544.671" y1="228.566" x2="474.894" y2="310.499" gradientUnits="userSpaceOnUse">
<stop stop-color="white" stop-opacity="0"/>
<stop offset="1" stop-color="#B0BEC5"/>
</linearGradient>
<linearGradient id="paint13_linear_1_4123" x1="6.50752" y1="218.792" x2="101.24" y2="258.827" gradientUnits="userSpaceOnUse">
<stop stop-color="white" stop-opacity="0"/>
<stop offset="1"/>
</linearGradient>
<linearGradient id="paint14_linear_1_4123" x1="36.631" y1="145.18" x2="64.7241" y2="170.352" gradientUnits="userSpaceOnUse">
<stop stop-color="#42AB75"/>
<stop offset="1" stop-color="#1C2467"/>
</linearGradient>
<linearGradient id="paint15_linear_1_4123" x1="40.1503" y1="147.055" x2="40.2047" y2="175.375" gradientUnits="userSpaceOnUse">
<stop stop-color="white" stop-opacity="0"/>
<stop offset="1"/>
</linearGradient>
<linearGradient id="paint16_linear_1_4123" x1="644.147" y1="220.595" x2="735.237" y2="259.093" gradientUnits="userSpaceOnUse">
<stop stop-color="white" stop-opacity="0"/>
<stop offset="1"/>
</linearGradient>
<linearGradient id="paint17_linear_1_4123" x1="672.921" y1="149.706" x2="700.179" y2="174.13" gradientUnits="userSpaceOnUse">
<stop stop-color="#42AB75"/>
<stop offset="1" stop-color="#1C2467"/>
</linearGradient>
<linearGradient id="paint18_linear_1_4123" x1="676.341" y1="151.506" x2="676.394" y2="178.986" gradientUnits="userSpaceOnUse">
<stop stop-color="white" stop-opacity="0"/>
<stop offset="1"/>
</linearGradient>
<linearGradient id="paint19_linear_1_4123" x1="220.292" y1="7.38485" x2="426.153" y2="295.943" gradientUnits="userSpaceOnUse">
<stop stop-color="white" stop-opacity="0"/>
<stop offset="1"/>
</linearGradient>
</defs>
</svg>
