<svg width="283" height="101" viewBox="0 0 283 101" fill="none" xmlns="http://www.w3.org/2000/svg">
<path fill-rule="evenodd" clip-rule="evenodd" d="M33.6766 91.0215L38.6271 77.4913L42.3041 67.4562L54.9246 32.9845L58.6015 22.9494L62.3647 12.6366C62.5986 11.999 62.7046 11.3217 62.6767 10.6432C62.6488 9.96466 62.4876 9.29827 62.2022 8.68208C61.9167 8.06589 61.5127 7.51196 61.0132 7.0519C60.5137 6.59184 59.9285 6.23467 59.291 6.00078C58.6534 5.76689 57.9761 5.66086 57.2976 5.68875C56.619 5.71664 55.9527 5.87789 55.3365 6.16332C54.7203 6.44874 54.1663 6.85274 53.7063 7.35224C53.2462 7.85175 52.8891 8.43697 52.6552 9.0745L47.5897 22.9206L43.9127 32.9558L31.2923 67.4275L27.6153 77.4626L23.967 87.4307C23.4947 88.7182 23.5531 90.1407 24.1296 91.3852C24.706 92.6296 25.7532 93.5941 27.0407 94.0665C28.3283 94.5389 29.7508 94.4804 30.9952 93.9039C32.2397 93.3275 33.2042 92.2803 33.6766 90.9927M91.8668 32.9653L95.515 22.9302L103.855 0.111867H109.984L101.643 22.959H128.043L124.261 32.9941H91.8668V32.9653ZM81.7263 77.4626L76.0864 92.9749C75.3953 94.8694 74.1895 96.5335 72.6045 97.7802C71.0195 99.0269 69.1181 99.8067 67.1142 100.032H64.6628C63.8068 99.93 62.9651 99.7308 62.154 99.4383C60.5722 98.8581 59.1473 97.9174 57.9921 96.6908C56.837 95.4642 55.9834 93.9854 55.4991 92.3716L50.8741 77.4913H44.6979L39.0197 92.9749C38.3286 94.8694 37.1228 96.5335 35.5378 97.7802C33.9528 99.0269 32.0514 99.8067 30.0474 100.032H27.5961C26.74 99.93 25.8984 99.7308 25.0874 99.4383C23.5055 98.8581 22.0806 97.9174 20.9254 96.6908C19.7703 95.4642 18.9167 93.9854 18.4324 92.3716L13.8457 77.4913H-0.000427246L3.64784 67.4562H25.231L37.8515 32.9845H16.1821L19.8304 22.9494H41.5285L47.3216 7.14982C48.1051 5.01466 49.5393 3.17945 51.4218 1.90309C53.3043 0.626732 55.54 -0.0263246 57.8135 0.0360942C60.0871 0.0985131 62.2836 0.873255 64.0932 2.25098C65.9028 3.6287 67.2342 5.53984 67.8994 7.71477L68.0334 7.37965L72.869 22.9494H78.509L86.8397 0.102282H92.8339L84.5128 22.9494L80.8741 32.9941H60.9858L48.3654 67.4658H68.3111L64.6532 77.5009L61.0337 87.469C60.5614 88.7565 60.6198 90.179 61.1963 91.4235C61.7727 92.6679 62.8199 93.6324 64.1075 94.1048C65.395 94.5771 66.8175 94.5187 68.0619 93.9422C69.3064 93.3658 70.2709 92.3186 70.7433 91.0311L79.3133 67.4658H111.257L107.484 77.5009H81.7263V77.4626Z" fill="#42AB75"/>
<path d="M101.94 58.5415C104.708 55.8986 107.504 53.2558 110.242 50.6034C109.677 47.5871 109.131 44.5804 108.586 41.5546C107.379 44.5517 106.24 47.5392 105.062 50.5363C104.018 53.1983 103.003 55.8699 101.94 58.5415ZM133.147 57.3349C134.018 55.0655 134.899 52.8057 135.79 50.5363C136.766 48.0403 137.724 45.5348 138.662 43.0196C136.038 45.5475 133.415 48.0754 130.762 50.6034C131.624 52.8536 132.342 55.0943 133.175 57.3349H133.147ZM150.105 55.8412C150.813 54.0793 151.493 52.2982 152.183 50.5363C152.872 48.7745 153.648 46.8785 154.337 45.0592H144.829C144.446 46.0167 144.091 47.0413 143.67 48.018H150.057C149.463 49.5214 148.822 51.0247 148.286 52.5376H141.918C141.516 53.6292 141.018 54.74 140.616 55.8412H150.105ZM175.671 40.4055C174.321 43.8048 173.048 47.1849 171.717 50.5746C170.386 53.9644 169.093 57.3445 167.743 60.7343H160.695C161.222 59.4224 161.739 58.1105 162.256 56.7891C162.773 55.4677 163.214 54.1655 163.769 52.844H158.407C157.88 54.1655 157.449 55.4869 156.913 56.7891C156.377 58.0914 155.869 59.4224 155.352 60.7343H126.626C125.774 57.9286 124.921 55.1134 124.098 52.2983C123.763 52.3749 123.361 52.4419 123.006 52.5089C122.441 53.8782 121.905 55.2475 121.398 56.6264C120.89 58.0052 120.335 59.365 119.808 60.7343H113.661C114.159 59.365 114.743 57.9861 115.25 56.6264C115.758 55.2666 116.313 53.8782 116.859 52.5089L115.901 52.2983C113.137 55.1134 110.386 57.9254 107.647 60.7343H94.2415C94.7682 59.4224 95.2757 58.0914 95.7832 56.7891C96.2907 55.4869 96.7982 54.1655 97.3248 52.844H91.953C91.4551 54.1655 90.9188 55.4677 90.4113 56.7891C89.9038 58.1105 89.3963 59.4224 88.8984 60.7343H81.8317C83.1723 57.3445 84.4745 53.9548 85.8055 50.5746C87.1365 47.1945 88.4483 43.8048 89.7506 40.4055H96.8269C96.329 41.6599 95.8215 42.9047 95.3331 44.1591C94.8448 45.4135 94.3756 46.6583 93.8681 47.9031H99.0676C99.5368 46.6583 100.073 45.4039 100.533 44.1591C100.992 42.9143 101.49 41.6599 101.998 40.4055H115.403C116.064 43.1728 116.706 45.9305 117.318 48.6979L118.19 48.8511C118.716 47.4435 119.243 46.0263 119.779 44.6283C120.316 43.2303 120.938 41.8227 121.484 40.4055H127.631C127.066 41.8227 126.492 43.2111 125.927 44.6283C125.362 46.0455 124.883 47.4435 124.347 48.8511L125.362 48.6979C126.779 47.319 128.12 45.9305 129.546 44.5517C130.973 43.1728 132.362 41.7939 133.779 40.4055H163.223C162.706 41.6599 162.266 42.8951 161.739 44.1591C161.212 45.4231 160.782 46.6583 160.293 47.9031H165.636C166.163 46.6583 166.594 45.3943 167.082 44.1591C167.571 42.9239 168.04 41.6599 168.576 40.4055H175.671ZM198.164 49.0234H200.568C202.579 49.0234 203.9 48.3436 204.398 46.9647C204.896 45.5858 204.206 45.0496 202.243 45.0496H199.668C199.15 46.304 198.653 47.635 198.126 48.966L198.164 49.0234ZM188.426 55.8986C189.154 54.1367 189.805 52.3653 190.504 50.5938C191.203 48.8224 191.95 46.936 192.63 45.1166H182.709C182.326 46.0742 181.953 47.0988 181.57 48.0755H188.273C187.698 49.5788 187.085 51.0822 186.52 52.5951H179.818C179.368 53.6867 178.918 54.7974 178.496 55.8986H188.426ZM232.808 40.4055C231.458 43.8048 230.165 47.1754 228.834 50.5746C227.503 53.9739 226.211 57.3445 224.88 60.7343H217.804C218.273 59.4224 218.847 58.101 219.336 56.7891C219.824 55.4773 220.36 54.1655 220.849 52.844H215.553C214.988 54.1655 214.5 55.4773 213.992 56.7891C213.485 58.101 212.978 59.4224 212.451 60.7343H205.355C206.706 57.3445 207.998 53.9644 209.329 50.5746C209.444 50.2395 209.588 49.9139 209.703 49.6171C208.987 50.3978 208.157 51.066 207.242 51.5992C205.193 52.7975 202.855 53.4134 200.481 53.3803H196.479C196.029 54.6155 195.569 55.8603 195.09 57.086C194.612 58.3117 194.133 59.5373 193.616 60.763H169.677C171.008 57.3733 172.32 53.9739 173.632 50.6034C174.944 47.2328 176.246 43.7665 177.587 40.4055H204.226C206.023 40.2987 207.823 40.5526 209.521 41.1524C210.012 41.3653 210.454 41.679 210.817 42.0732C211.18 42.4674 211.456 42.9333 211.627 43.4409C211.738 43.6832 211.81 43.9419 211.838 44.207C212.317 42.943 212.796 41.679 213.303 40.3768H220.379C219.881 41.6312 219.422 42.8664 218.886 44.1304C218.349 45.3943 217.928 46.6295 217.449 47.8744H222.792C223.29 46.6295 223.75 45.3752 224.257 44.1304C224.765 42.8856 225.215 41.6312 225.722 40.3768L232.808 40.4055ZM235.432 56.2242H238.649C239.341 56.2703 240.03 56.0924 240.612 55.7167C241.19 55.2809 241.62 54.6797 241.848 53.9931C242.365 52.6047 241.962 51.8961 240.545 51.8961H237.136C236.571 53.3037 235.997 54.7687 235.432 56.1859V56.2242ZM246.051 60.7343C246.69 59.1575 247.306 57.5775 247.899 55.9944C247.129 57.0736 246.176 58.0101 245.084 58.7617C242.893 60.1583 240.326 60.847 237.73 60.7343H226.824C228.174 57.3445 229.486 53.9548 230.797 50.5746C232.109 47.1945 233.45 43.8048 234.752 40.4055H241.608C241.139 41.6024 240.651 42.7898 240.191 43.9963C239.731 45.2028 239.233 46.371 238.812 47.568H242.863C244.488 47.4651 246.118 47.6965 247.65 48.2478C248.084 48.4447 248.467 48.7375 248.77 49.1041C249.074 49.4707 249.29 49.9015 249.403 50.364C249.494 50.8304 249.526 51.3066 249.498 51.7812C249.632 51.3598 249.805 50.9481 249.968 50.5363C251.299 47.1466 252.591 43.7665 253.941 40.3672H260.893C259.572 43.7665 258.25 47.1466 256.939 50.5363C255.627 53.9261 254.315 57.3062 252.965 60.6959L246.051 60.7343ZM277.421 34.6028H280.992C280.065 36.0374 278.807 37.2293 277.325 38.0787C276.016 38.8347 274.536 39.2435 273.025 39.266C271.823 39.3135 270.647 38.9067 269.731 38.1265C269.273 37.6773 268.943 37.114 268.774 36.4946C268.606 35.8753 268.606 35.2222 268.774 34.6028H271.733C272.192 38.0403 276.406 36.4412 277.421 34.5644V34.6028ZM261.736 60.7343H254.88C256.182 57.3445 257.532 53.9452 258.825 50.5746C260.118 47.2041 261.458 43.8048 262.799 40.4055H269.664C268.295 43.8144 266.868 47.2328 265.451 50.6417C268.831 47.2328 272.221 43.8144 275.572 40.4055H282.505C281.136 43.8048 279.853 47.1945 278.531 50.5746C277.21 53.9548 275.888 57.3445 274.538 60.7343H267.673C269.071 57.3733 270.392 54.0314 271.742 50.6417C268.381 53.9644 265.078 57.3349 261.736 60.6959V60.7343ZM67.3536 58.5989C67.1237 59.3075 66.8173 60.0161 66.5013 60.7343H59.7123C61.0146 57.3445 62.3647 53.9548 63.6957 50.5746C65.0267 47.1945 66.2907 43.8048 67.6408 40.4055H74.4298C73.9606 41.7652 73.3861 43.1058 72.8499 44.4751L71.2603 48.5542C70.8486 49.6075 70.3028 50.9194 69.5846 52.3844C71.0497 50.7662 72.4573 49.3107 73.7404 48.0563C75.6555 46.2178 77.5706 44.3889 79.4857 42.56C79.8208 41.8322 80.0794 41.1045 80.3666 40.3768H87.2035C85.9012 43.7761 84.6182 47.1562 83.2776 50.5459C81.937 53.9356 80.6443 57.3158 79.2942 60.7055H72.419C72.9839 59.365 73.4723 58.0148 73.9989 56.6742C74.5256 55.3337 74.9565 53.9739 75.5406 52.643C76.0098 51.4652 76.6035 50.2012 77.245 48.8128C76.0577 50.1821 74.6405 51.5992 73.051 53.1217C71.1742 54.8932 69.2782 56.7317 67.3344 58.5989H67.3536Z" fill="#1C2467"/>
<path d="M154.519 79.5884C155.084 77.8265 155.677 76.0454 156.29 74.274C156.903 72.5025 157.497 70.6257 158.138 68.8064H148.247C147.94 69.7639 147.605 70.7789 147.289 71.7652H154.432C153.915 73.2685 153.475 74.7719 152.891 76.2752H145.747C145.393 77.3764 145.02 78.4872 144.637 79.5884H154.528M198.709 72.7036H201.055C203.066 72.7036 204.359 72.0142 204.819 70.6544C205.278 69.2947 204.531 68.7393 202.597 68.7393H199.993C199.552 70.0895 199.15 71.3726 198.7 72.7036H198.709ZM197.321 77.0604C196.919 78.2861 196.526 79.5309 196.114 80.7566C195.703 81.9823 195.281 83.2175 194.831 84.4431H187.688C188.799 81.0534 189.9 77.6541 191.049 74.274C191.652 72.5025 192.303 70.7502 192.849 68.9883H188.569C187.669 71.5641 186.836 74.1495 185.964 76.7157C185.093 79.282 184.203 81.8673 183.331 84.4527H176.628C177.5 81.8769 178.342 79.2915 179.204 76.7253C180.066 74.1591 180.956 71.5737 181.809 68.9979H177.586C176.973 70.7598 176.389 72.5217 175.786 74.2836C174.637 77.6733 173.5 81.063 172.377 84.4527H165.31C165.76 83.1313 166.268 81.8195 166.66 80.498C167.053 79.1766 167.532 77.8648 167.953 76.5529H162.639C162.189 77.8648 161.758 79.1862 161.308 80.498C160.858 81.8099 160.407 83.1313 159.986 84.4527H136.565C136.114 85.8603 135.607 87.3254 135.138 88.7042H130.666C130.953 87.2871 131.26 85.8316 131.49 84.4527H115.345C116.427 81.063 117.557 77.6733 118.706 74.2836C119.855 70.8938 120.976 67.5137 122.106 64.124H128.971C128.119 66.7093 127.276 69.3139 126.386 71.8897C125.495 74.4655 124.643 77.07 123.743 79.665H128.665C129.536 77.07 130.436 74.4846 131.308 71.8897C132.179 69.2947 133.041 66.7093 133.864 64.124H140.73C139.878 66.7093 139.035 69.3043 138.173 71.8897C137.311 74.4751 136.392 77.07 135.521 79.665H137.723C138.317 77.8744 138.93 76.0742 139.523 74.2836C140.634 70.8938 141.767 67.5073 142.923 64.124H166.766C166.344 65.3688 165.923 66.6232 165.511 67.868C165.099 69.1128 164.669 70.3768 164.266 71.6216H169.61C170.012 70.3768 170.443 69.1224 170.864 67.868C171.285 66.6136 171.687 65.3688 172.118 64.124H204.282C206.098 64.0216 207.917 64.2754 209.635 64.8708C210.149 65.0797 210.616 65.3888 211.009 65.7801C211.402 66.1714 211.713 66.637 211.924 67.1498C212.334 68.2621 212.317 69.487 211.876 70.5874C211.197 72.5593 209.84 74.2257 208.046 75.289C206.023 76.5013 203.7 77.1186 201.343 77.07L197.321 77.0604Z" fill="#1C2467"/>
</svg>
