<svg width="283" height="101" viewBox="0 0 283 101" fill="none" xmlns="http://www.w3.org/2000/svg">
<path fill-rule="evenodd" clip-rule="evenodd" d="M33.677 91.3171L38.6275 77.787L42.3045 67.7519L54.925 33.2801L58.602 23.245L62.3651 12.9322C62.599 12.2947 62.7051 11.6173 62.6772 10.9388C62.6493 10.2603 62.488 9.59391 62.2026 8.97772C61.9172 8.36152 61.5132 7.8076 61.0137 7.34753C60.5142 6.88747 59.929 6.53031 59.2914 6.29642C58.6539 6.06253 57.9765 5.9565 57.298 5.98438C56.6195 6.01227 55.9531 6.17353 55.3369 6.45895C54.7207 6.74437 54.1668 7.14838 53.7067 7.64788C53.2467 8.14738 52.8895 8.7326 52.6556 9.37014L47.5902 23.2163L43.9132 33.2514L31.2927 67.7231L27.6157 77.7582L23.9675 87.7263C23.4951 89.0139 23.5535 90.4363 24.13 91.6808C24.7064 92.9253 25.7536 93.8898 27.0412 94.3621C28.3287 94.8345 29.7512 94.776 30.9957 94.1996C32.2401 93.6231 33.2046 92.5759 33.677 91.2884M91.8672 33.261L95.5155 23.2259L103.856 0.407501H109.984L101.644 23.2546H128.043L124.261 33.2897H91.8672V33.261ZM81.7268 77.7582L76.0868 93.2705C75.3958 95.165 74.19 96.8291 72.6049 98.0758C71.0199 99.3225 69.1185 100.102 67.1146 100.328H64.6633C63.8072 100.226 62.9655 100.026 62.1545 99.734C60.5726 99.1537 59.1477 98.2131 57.9925 96.9865C56.8374 95.7598 55.9839 94.281 55.4995 92.6673L50.8746 77.787H44.6984L39.0201 93.2705C38.3291 95.165 37.1232 96.8291 35.5382 98.0758C33.9532 99.3225 32.0518 100.102 30.0479 100.328H27.5966C26.7405 100.226 25.8988 100.026 25.0878 99.734C23.5059 99.1537 22.081 98.2131 20.9259 96.9865C19.7707 95.7598 18.9172 94.281 18.4328 92.6673L13.8462 77.787H0L3.64827 67.7519H25.2314L37.8519 33.2801H16.1826L19.8308 23.245H41.5289L47.3221 7.44546C48.1056 5.3103 49.5398 3.47509 51.4222 2.19873C53.3047 0.922366 55.5404 0.26931 57.814 0.331729C60.0875 0.394147 62.284 1.16889 64.0936 2.54661C65.9032 3.92434 67.2346 5.83547 67.8998 8.01041L68.0338 7.67529L72.8695 23.245H78.5094L86.8401 0.397916H92.8343L84.5132 23.245L80.8745 33.2897H60.9863L48.3658 67.7614H68.3115L64.6537 77.7965L61.0341 87.7646C60.5618 89.0522 60.6203 90.4747 61.1967 91.7191C61.7731 92.9636 62.8203 93.9281 64.1079 94.4004C65.3954 94.8728 66.8179 94.8143 68.0624 94.2379C69.3068 93.6614 70.2713 92.6143 70.7437 91.3267L79.3137 67.7614H111.258L107.485 77.7965H81.7268V77.7582Z" fill="#42AB75"/>
<path d="M101.941 58.8369C104.708 56.194 107.504 53.5512 110.243 50.8988C109.678 47.8825 109.132 44.8758 108.586 41.85C107.38 44.8471 106.24 47.8346 105.062 50.8318C104.019 53.4937 103.004 56.1653 101.941 58.8369ZM133.147 57.6304C134.018 55.361 134.899 53.1012 135.79 50.8318C136.767 48.3358 137.724 45.8302 138.663 43.315C136.039 45.843 133.415 48.3709 130.763 50.8988C131.625 53.149 132.343 55.3897 133.176 57.6304H133.147ZM150.105 56.1366C150.814 54.3747 151.494 52.5937 152.183 50.8318C152.873 49.0699 153.648 47.1739 154.338 45.3546H144.829C144.446 46.3121 144.092 47.3367 143.671 48.3134H150.057C149.464 49.8168 148.822 51.3201 148.286 52.8331H141.918C141.516 53.9247 141.018 55.0354 140.616 56.1366H150.105ZM175.672 40.7009C174.322 44.1002 173.048 47.4804 171.717 50.8701C170.386 54.2598 169.093 57.64 167.743 61.0297H160.696C161.222 59.7178 161.74 58.406 162.257 57.0846C162.774 55.7631 163.214 54.4609 163.77 53.1395H158.407C157.881 54.4609 157.45 55.7823 156.913 57.0846C156.377 58.3868 155.87 59.7178 155.353 61.0297H126.626C125.774 58.2241 124.922 55.4089 124.098 52.5937C123.763 52.6703 123.361 52.7373 123.007 52.8043C122.442 54.1736 121.906 55.5429 121.398 56.9218C120.891 58.3007 120.335 59.6604 119.808 61.0297H113.661C114.159 59.6604 114.743 58.2815 115.251 56.9218C115.758 55.5621 116.313 54.1736 116.859 52.8043L115.902 52.5937C113.138 55.4089 110.386 58.2209 107.648 61.0297H94.2419C94.7686 59.7178 95.2761 58.3868 95.7836 57.0846C96.2911 55.7823 96.7986 54.4609 97.3252 53.1395H91.9534C91.4555 54.4609 90.9192 55.7631 90.4117 57.0846C89.9042 58.406 89.3967 59.7178 88.8988 61.0297H81.8321C83.1727 57.64 84.4749 54.2502 85.8059 50.8701C87.1369 47.4899 88.4488 44.1002 89.751 40.7009H96.8273C96.3294 41.9553 95.8219 43.2001 95.3335 44.4545C94.8452 45.7089 94.376 46.9537 93.8685 48.1985H99.068C99.5372 46.9537 100.073 45.6993 100.533 44.4545C100.993 43.2097 101.491 41.9553 101.998 40.7009H115.404C116.064 43.4682 116.706 46.226 117.319 48.9933L118.19 49.1465C118.717 47.7389 119.244 46.3217 119.78 44.9237C120.316 43.5257 120.938 42.1181 121.484 40.7009H127.632C127.067 42.1181 126.492 43.5065 125.927 44.9237C125.362 46.3409 124.883 47.7389 124.347 49.1465L125.362 48.9933C126.779 47.6144 128.12 46.226 129.547 44.8471C130.973 43.4682 132.362 42.0894 133.779 40.7009H163.224C162.707 41.9553 162.266 43.1906 161.74 44.4545C161.213 45.7185 160.782 46.9537 160.294 48.1985H165.637C166.163 46.9537 166.594 45.6898 167.083 44.4545C167.571 43.2193 168.04 41.9553 168.576 40.7009H175.672ZM198.165 49.3188H200.568C202.579 49.3188 203.9 48.639 204.398 47.2601C204.896 45.8813 204.207 45.345 202.244 45.345H199.668C199.151 46.5994 198.653 47.9304 198.126 49.2614L198.165 49.3188ZM188.426 56.194C189.154 54.4321 189.805 52.6607 190.504 50.8892C191.203 49.1178 191.95 47.2314 192.63 45.4121H182.71C182.327 46.3696 181.953 47.3942 181.57 48.3709H188.273C187.699 49.8742 187.086 51.3776 186.521 52.8905H179.818C179.368 53.9821 178.918 55.0929 178.497 56.194H188.426ZM232.809 40.7009C231.459 44.1002 230.166 47.4708 228.835 50.8701C227.504 54.2694 226.211 57.64 224.88 61.0297H217.804C218.273 59.7178 218.848 58.3964 219.336 57.0846C219.824 55.7727 220.361 54.4609 220.849 53.1395H215.554C214.989 54.4609 214.5 55.7727 213.993 57.0846C213.485 58.3964 212.978 59.7178 212.451 61.0297H205.356C206.706 57.64 207.999 54.2598 209.33 50.8701C209.445 50.5349 209.588 50.2094 209.703 49.9125C208.987 50.6932 208.158 51.3615 207.242 51.8947C205.193 53.0929 202.856 53.7088 200.482 53.6757H196.479C196.029 54.9109 195.57 56.1558 195.091 57.3814C194.612 58.6071 194.133 59.8327 193.616 61.0584H169.678C171.009 57.6687 172.32 54.2694 173.632 50.8988C174.944 47.5282 176.246 44.0619 177.587 40.7009H204.226C206.023 40.5941 207.824 40.848 209.521 41.4478C210.013 41.6607 210.454 41.9744 210.817 42.3686C211.18 42.7628 211.456 43.2288 211.628 43.7364C211.739 43.9787 211.81 44.2373 211.838 44.5024C212.317 43.2384 212.796 41.9745 213.303 40.6722H220.38C219.882 41.9266 219.422 43.1618 218.886 44.4258C218.35 45.6898 217.928 46.925 217.45 48.1698H222.793C223.291 46.925 223.75 45.6706 224.258 44.4258C224.765 43.181 225.215 41.9266 225.723 40.6722L232.809 40.7009ZM235.432 56.5196H238.65C239.342 56.5657 240.03 56.3878 240.613 56.0121C241.19 55.5763 241.621 54.9751 241.848 54.2885C242.365 52.9001 241.963 52.1915 240.546 52.1915H237.137C236.572 53.5991 235.997 55.0641 235.432 56.4813V56.5196ZM246.052 61.0297C246.69 59.4529 247.306 57.8729 247.9 56.2898C247.129 57.369 246.177 58.3055 245.085 59.0571C242.894 60.4537 240.326 61.1424 237.731 61.0297H226.824C228.174 57.64 229.486 54.2502 230.798 50.8701C232.11 47.4899 233.45 44.1002 234.753 40.7009H241.609C241.139 41.8978 240.651 43.0852 240.191 44.2917C239.732 45.4982 239.234 46.6664 238.813 47.8634H242.863C244.489 47.7605 246.118 47.9919 247.651 48.5432C248.084 48.7401 248.467 49.033 248.771 49.3996C249.074 49.7662 249.29 50.197 249.403 50.6594C249.495 51.1259 249.527 51.6021 249.499 52.0766C249.633 51.6553 249.805 51.2435 249.968 50.8318C251.299 47.442 252.592 44.0619 253.942 40.6626H260.894C259.572 44.0619 258.251 47.442 256.939 50.8318C255.627 54.2215 254.315 57.6016 252.965 60.9914L246.052 61.0297ZM277.421 34.8982H280.993C280.065 36.3328 278.807 37.5247 277.325 38.3741C276.017 39.1301 274.537 39.5389 273.026 39.5614C271.824 39.609 270.648 39.2021 269.732 38.4219C269.273 37.9727 268.943 37.4094 268.775 36.7901C268.606 36.1707 268.606 35.5176 268.774 34.8982H271.733C272.193 38.3358 276.406 36.7367 277.421 34.8599V34.8982ZM261.736 61.0297H254.88C256.183 57.64 257.533 54.2406 258.825 50.8701C260.118 47.4995 261.459 44.1002 262.799 40.7009H269.665C268.296 44.1098 266.869 47.5282 265.452 50.9371C268.832 47.5282 272.221 44.1098 275.573 40.7009H282.506C281.136 44.1002 279.853 47.4899 278.532 50.8701C277.21 54.2502 275.889 57.64 274.539 61.0297H267.673C269.071 57.6687 270.393 54.3268 271.743 50.9371C268.382 54.2598 265.078 57.6304 261.736 60.9914V61.0297ZM67.354 58.8943C67.1242 59.6029 66.8178 60.3115 66.5018 61.0297H59.7127C61.015 57.64 62.3652 54.2502 63.6961 50.8701C65.0271 47.4899 66.2911 44.1002 67.6412 40.7009H74.4303C73.9611 42.0606 73.3865 43.4012 72.8503 44.7705L71.2608 48.8497C70.849 49.903 70.3032 51.2148 69.5851 52.6799C71.0501 51.0616 72.4577 49.6061 73.7408 48.3517C75.6559 46.5132 77.571 44.6843 79.4861 42.8554C79.8212 42.1277 80.0798 41.3999 80.3671 40.6722H87.2039C85.9017 44.0715 84.6186 47.4516 83.278 50.8413C81.9375 54.2311 80.6448 57.6112 79.2946 61.0009H72.4194C72.9844 59.6604 73.4727 58.3102 73.9994 56.9696C74.526 55.6291 74.9569 54.2694 75.541 52.9384C76.0102 51.7606 76.6039 50.4966 77.2454 49.1082C76.0581 50.4775 74.6409 51.8947 73.0514 53.4172C71.1746 55.1886 69.2786 57.0271 67.3348 58.8943H67.354Z" fill="white"/>
<path d="M154.519 79.884C155.084 78.1221 155.678 76.341 156.29 74.5696C156.903 72.7981 157.497 70.9213 158.139 69.102H148.247C147.941 70.0595 147.605 71.0745 147.289 72.0608H154.433C153.916 73.5641 153.475 75.0675 152.891 76.5708H145.748C145.394 77.672 145.02 78.7828 144.637 79.884H154.529M198.71 72.9992H201.056C203.067 72.9992 204.359 72.3098 204.819 70.95C205.279 69.5903 204.532 69.0349 202.597 69.0349H199.993C199.552 70.3851 199.15 71.6682 198.7 72.9992H198.71ZM197.321 77.356C196.919 78.5817 196.527 79.8265 196.115 81.0522C195.703 82.2779 195.282 83.5131 194.832 84.7387H187.688C188.799 81.349 189.9 77.9497 191.049 74.5696C191.653 72.7981 192.304 71.0458 192.85 69.2839H188.569C187.669 71.8597 186.836 74.4451 185.965 77.0113C185.094 79.5776 184.203 82.1629 183.332 84.7483H176.629C177.5 82.1725 178.343 79.5871 179.205 77.0209C180.066 74.4547 180.957 71.8693 181.809 69.2935H177.586C176.974 71.0554 176.389 72.8173 175.786 74.5792C174.637 77.9689 173.501 81.3586 172.377 84.7483H165.311C165.761 83.4269 166.268 82.1151 166.661 80.7936C167.053 79.4722 167.532 78.1604 167.953 76.8485H162.639C162.189 78.1604 161.758 79.4818 161.308 80.7936C160.858 82.1055 160.408 83.4269 159.987 84.7483H136.565C136.115 86.1559 135.607 87.621 135.138 88.9998H130.666C130.954 87.5827 131.26 86.1272 131.49 84.7483H115.346C116.428 81.3586 117.558 77.9689 118.707 74.5792C119.856 71.1894 120.976 67.8093 122.106 64.4196H128.972C128.119 67.0049 127.277 69.6095 126.386 72.1853C125.496 74.7611 124.643 77.3656 123.743 79.9606H128.665C129.537 77.3656 130.437 74.7802 131.308 72.1853C132.179 69.5903 133.041 67.0049 133.865 64.4196H140.73C139.878 67.0049 139.035 69.5999 138.174 72.1853C137.312 74.7707 136.393 77.3656 135.521 79.9606H137.724C138.317 78.17 138.93 76.3698 139.524 74.5792C140.635 71.1894 141.768 67.8029 142.923 64.4196H166.766C166.345 65.6644 165.923 66.9188 165.512 68.1636C165.1 69.4084 164.669 70.6724 164.267 71.9172H169.61C170.012 70.6724 170.443 69.418 170.864 68.1636C171.286 66.9092 171.688 65.6644 172.119 64.4196H204.283C206.099 64.3172 207.917 64.571 209.635 65.1664C210.149 65.3753 210.616 65.6844 211.009 66.0757C211.402 66.467 211.713 66.9326 211.924 67.4454C212.334 68.5577 212.317 69.7826 211.876 70.883C211.198 72.8549 209.84 74.5213 208.046 75.5846C206.024 76.7969 203.7 77.4142 201.343 77.3656L197.321 77.356Z" fill="white"/>
</svg>
