<svg width="9" height="9" viewBox="0 0 9 9" fill="none" xmlns="http://www.w3.org/2000/svg">
<path d="M1.60524 5.31355H4.00524V7.71355C4.00524 7.92572 4.08952 8.12921 4.23955 8.27924C4.38958 8.42926 4.59306 8.51355 4.80524 8.51355C5.01741 8.51355 5.22089 8.42926 5.37092 8.27924C5.52095 8.12921 5.60524 7.92572 5.60524 7.71355V5.31355H8.00523C8.21741 5.31355 8.42089 5.22926 8.57092 5.07924C8.72095 4.92921 8.80523 4.72572 8.80523 4.51355C8.80523 4.30138 8.72095 4.09789 8.57092 3.94786C8.42089 3.79784 8.21741 3.71355 8.00523 3.71355H5.60524V1.31355C5.60524 1.10138 5.52095 0.897893 5.37092 0.747864C5.22089 0.597835 5.01741 0.51355 4.80524 0.51355C4.59306 0.51355 4.38958 0.597835 4.23955 0.747864C4.08952 0.897893 4.00524 1.10138 4.00524 1.31355V3.71355H1.60524C1.39306 3.71355 1.18958 3.79784 1.03955 3.94786C0.889522 4.09789 0.805237 4.30138 0.805237 4.51355C0.805237 4.72572 0.889522 4.92921 1.03955 5.07924C1.18958 5.22926 1.39306 5.31355 1.60524 5.31355Z" fill="white"/>
</svg>
