<svg width="39" height="40" viewBox="0 0 39 40" fill="none" xmlns="http://www.w3.org/2000/svg">
<path d="M4.67997 9.80199C7.12422 6.25625 10.7588 3.70434 14.9239 2.60949C19.089 1.51463 23.5085 1.94938 27.3804 3.83483C31.2523 5.72028 34.3201 8.93147 36.0266 12.8855C37.7331 16.8396 37.9653 21.2744 36.6812 25.3851C35.3971 29.4958 32.6819 33.0099 29.0281 35.2895C25.3743 37.5691 21.0243 38.4632 16.7676 37.8095C12.5109 37.1558 8.6297 34.9975 5.82841 31.7265C3.02711 28.4555 1.4914 24.2886 1.50004 19.982" stroke="#42AB75" stroke-width="3" stroke-linecap="round" stroke-linejoin="round"/>
<path d="M11.5 9.98193H3.5V1.98193" stroke="#42AB75" stroke-width="3" stroke-linecap="round" stroke-linejoin="round"/>
<path d="M19.5 11.9819V19.9819L25.5 25.9819" stroke="#42AB75" stroke-width="3" stroke-linecap="round" stroke-linejoin="round"/>
</svg>
