<svg width="27" height="27" viewBox="0 0 27 27" fill="none" xmlns="http://www.w3.org/2000/svg">
<path d="M22.0042 25.3228H19.0042C14.2303 25.3228 9.65187 23.4263 6.27621 20.0507C2.90056 16.675 1.00415 12.0967 1.00415 7.32275V4.32275C1.00415 3.5271 1.32026 2.76404 1.88287 2.20143C2.44548 1.63882 3.2085 1.32275 4.00415 1.32275H8.50415L10.0042 7.32275L7.00415 8.82275C7.00415 11.6075 8.11037 14.2783 10.0795 16.2474C12.0486 18.2165 14.7194 19.3228 17.5042 19.3228L19.0042 16.3228L25.0042 17.8228V22.3228C25.0042 23.1184 24.688 23.8815 24.1254 24.4441C23.5628 25.0067 22.7998 25.3228 22.0042 25.3228Z" stroke="white" stroke-width="2" stroke-linecap="round" stroke-linejoin="round"/>
</svg>
