<svg width="27" height="27" viewBox="0 0 27 27" fill="none" xmlns="http://www.w3.org/2000/svg">
<path d="M21.2175 17.7627L23.3775 19.9094L19.6041 23.6827L17.4441 21.5227C16.8796 21.8272 16.2855 22.073 15.6708 22.2561V25.3228H10.3375V22.2694C9.72284 22.0863 9.12868 21.8406 8.56421 21.5361L6.40422 23.6961L2.63078 19.9228L4.79077 17.7761C4.4863 17.2116 4.24067 16.6174 4.05754 16.0028H1.00415V10.6694H4.05754C4.24067 10.0548 4.4863 9.46054 4.79077 8.89608L2.63078 6.73608L6.40422 2.96277L8.55086 5.12276C9.11533 4.81829 9.70949 4.57254 10.3241 4.3894V1.32275H15.6575V4.3761C16.2721 4.55923 16.8663 4.80495 17.4307 5.10942V5.10942L19.5776 2.94942L23.3508 6.72274L21.1908 8.88277C21.4953 9.44724 21.7409 10.0414 21.9241 10.6561H25.0042V15.9894H21.9508C21.7676 16.6041 21.522 17.1983 21.2175 17.7627V17.7627Z" stroke="white" stroke-width="2" stroke-linecap="round" stroke-linejoin="round"/>
<path d="M13.0042 17.3228C15.2133 17.3228 17.0042 15.5319 17.0042 13.3228C17.0042 11.1136 15.2133 9.32275 13.0042 9.32275C10.795 9.32275 9.00415 11.1136 9.00415 13.3228C9.00415 15.5319 10.795 17.3228 13.0042 17.3228Z" stroke="white" stroke-width="2" stroke-linecap="round" stroke-linejoin="round"/>
</svg>
