<svg width="0" height="0" class="hidden">
  <symbol fill="none" xmlns="http://www.w3.org/2000/svg" viewBox="0 0 20 16" id="arr-green">
    <path fill-rule="evenodd" clip-rule="evenodd" d="M12.1058 15.9288L19.5196 8.56247C19.5431 8.51728 19.5554 8.46706 19.5554 8.41609C19.5554 8.36512 19.5431 8.31491 19.5196 8.26972L12.1058 0.863841C12.0606 0.840267 12.0104 0.827956 11.9594 0.827956C11.9084 0.827956 11.8582 0.840267 11.813 0.863841L10.8873 1.83705L16.687 7.63674L0.791226 7.63674C0.586239 7.65143 0.393415 7.73951 0.248095 7.88483C0.102776 8.03015 0.0146966 8.22298 -3.30984e-07 8.42796C0.00351912 8.64048 0.0868466 8.8439 0.233431 8.99782C0.380016 9.15173 0.579132 9.24488 0.791226 9.25875L16.5445 9.25875L10.8873 15.0031L11.813 15.9288C11.908 16.0237 12.0583 16.0237 12.1058 15.9288Z" fill="#42AB75"></path>
  </symbol>
  <symbol fill="none" xmlns="http://www.w3.org/2000/svg" viewBox="0 0 32 24" id="arrow">
    <path fill-rule="evenodd" clip-rule="evenodd" d="M19.6823 23.8874L31.4099 12.2349C31.4471 12.1634 31.4666 12.084 31.4666 12.0033C31.4666 11.9227 31.4471 11.8433 31.4099 11.7718L19.6823 0.0567638C19.6108 0.0194732 19.5314 -8.30458e-07 19.4507 -8.26934e-07C19.3701 -8.23409e-07 19.2907 0.0194732 19.2192 0.0567638L17.7548 1.59624L26.9291 10.7705L1.78432 10.7705C1.46006 10.7938 1.15504 10.9331 0.925166 11.163C0.695292 11.3928 0.555963 11.6979 0.532714 12.0221C0.538282 12.3583 0.670094 12.6801 0.901969 12.9235C1.13385 13.167 1.44882 13.3144 1.78432 13.3363L26.7038 13.3363L17.7548 22.423L19.2192 23.8874C19.3694 24.0375 19.6072 24.0375 19.6823 23.8874Z" fill="white"></path>
  </symbol>


  <symbol viewBox="0 0 32 32" fill="none" xmlns="http://www.w3.org/2000/svg" id="arr-round">
    <circle cx="16" cy="16" r="15.5" />
    <path fill-rule="evenodd" clip-rule="evenodd" d="M18.1481 22.9343L24.9892 16.137C25.011 16.0953 25.0223 16.049 25.0223 16.002C25.0223 15.9549 25.011 15.9086 24.9892 15.8669L18.1481 9.03311C18.1064 9.01136 18.0601 9 18.0131 9C17.966 9 17.9197 9.01136 17.878 9.03311L17.0238 9.93114L22.3754 15.2828L7.70764 15.2828C7.51849 15.2964 7.34056 15.3776 7.20647 15.5117C7.07238 15.6458 6.9911 15.8238 6.97754 16.0129C6.98079 16.209 7.05768 16.3967 7.19294 16.5387C7.3282 16.6808 7.51193 16.7667 7.70764 16.7795L22.244 16.7795L17.0238 22.0801L17.878 22.9343C17.9656 23.0219 18.1043 23.0219 18.1481 22.9343Z" />
  </symbol>

  <symbol fill="none" xmlns="http://www.w3.org/2000/svg" viewBox="0 0 18 14" id="check">
    <path d="M2.28027 8.3501L6.28027 12.3501L16.2803 2.3501" stroke="#252636" stroke-width="3" stroke-linecap="round" stroke-linejoin="round"></path>
  </symbol>
  <symbol fill="none" xmlns="http://www.w3.org/2000/svg" viewBox="0 0 18 22" id="geo">
    <path d="M16.5556 9.21113C16.5556 13.75 8.77778 21 8.77778 21C8.77778 21 1 13.7778 1 9.21113C1 4.64446 4.48333 1 8.77778 1C13.0722 1 16.5556 4.67779 16.5556 9.21113Z" stroke="#42AB75" stroke-linecap="round" stroke-linejoin="round"></path>
    <path d="M8.77779 12.111C10.6187 12.111 12.1111 10.6186 12.1111 8.77767C12.1111 6.93672 10.6187 5.44434 8.77779 5.44434C6.93684 5.44434 5.44446 6.93672 5.44446 8.77767C5.44446 10.6186 6.93684 12.111 8.77779 12.111Z" stroke="#42AB75" stroke-linecap="round" stroke-linejoin="round"></path>
  </symbol>
  <symbol fill="none" xmlns="http://www.w3.org/2000/svg" viewBox="0 0 9 9" id="plus">
    <path d="M1.60524 5.31355H4.00524V7.71355C4.00524 7.92572 4.08952 8.12921 4.23955 8.27924C4.38958 8.42926 4.59306 8.51355 4.80524 8.51355C5.01741 8.51355 5.22089 8.42926 5.37092 8.27924C5.52095 8.12921 5.60524 7.92572 5.60524 7.71355V5.31355H8.00523C8.21741 5.31355 8.42089 5.22926 8.57092 5.07924C8.72095 4.92921 8.80523 4.72572 8.80523 4.51355C8.80523 4.30138 8.72095 4.09789 8.57092 3.94786C8.42089 3.79784 8.21741 3.71355 8.00523 3.71355H5.60524V1.31355C5.60524 1.10138 5.52095 0.897893 5.37092 0.747864C5.22089 0.597835 5.01741 0.51355 4.80524 0.51355C4.59306 0.51355 4.38958 0.597835 4.23955 0.747864C4.08952 0.897893 4.00524 1.10138 4.00524 1.31355V3.71355H1.60524C1.39306 3.71355 1.18958 3.79784 1.03955 3.94786C0.889522 4.09789 0.805237 4.30138 0.805237 4.51355C0.805237 4.72572 0.889522 4.92921 1.03955 5.07924C1.18958 5.22926 1.39306 5.31355 1.60524 5.31355Z" fill="white"></path>
  </symbol>
  <symbol fill="none" xmlns="http://www.w3.org/2000/svg" viewBox="0 0 39 32" id="sadvantages-1">
    <path d="M37.5 24.0002H1.5V30.0002H37.5V24.0002Z" stroke="#42AB75" stroke-width="3" stroke-linecap="round" stroke-linejoin="round"></path>
    <path d="M3.5 24.0002V20.0002C3.5 15.7568 5.1857 11.6871 8.18628 8.68652C11.1869 5.68594 15.2565 4.00024 19.5 4.00024C23.7435 4.00024 27.8131 5.68594 30.8137 8.68652C33.8143 11.6871 35.5 15.7568 35.5 20.0002V24.0002" stroke="#42AB75" stroke-width="3" stroke-linecap="round" stroke-linejoin="round"></path>
    <path d="M9.5 16.0002V7.52026" stroke="#42AB75" stroke-width="3" stroke-linecap="round" stroke-linejoin="round"></path>
    <path d="M29.5 16.0002V7.52026" stroke="#42AB75" stroke-width="3" stroke-linecap="round" stroke-linejoin="round"></path>
    <path d="M19.5 18.0002V2.00024" stroke="#42AB75" stroke-width="3" stroke-linecap="round" stroke-linejoin="round"></path>
  </symbol>
  <symbol fill="none" xmlns="http://www.w3.org/2000/svg" viewBox="0 0 24 40" id="sadvantages-2">
    <path d="M12 16.0002C14.2091 16.0002 16 14.2094 16 12.0002C16 9.79111 14.2091 8.00024 12 8.00024C9.79086 8.00024 8 9.79111 8 12.0002C8 14.2094 9.79086 16.0002 12 16.0002Z" stroke="#42AB75" stroke-width="3" stroke-linecap="round" stroke-linejoin="round"></path>
    <path d="M12 2.00024V8.00024" stroke="#42AB75" stroke-width="3" stroke-linecap="round" stroke-linejoin="round"></path>
    <path d="M21.9999 38.0002L13.4399 15.7202" stroke="#42AB75" stroke-width="3" stroke-linecap="round" stroke-linejoin="round"></path>
    <path d="M10.56 15.7202L2 38.0002" stroke="#42AB75" stroke-width="3" stroke-linecap="round" stroke-linejoin="round"></path>
    <path d="M2 26.0002H22" stroke="#42AB75" stroke-width="3" stroke-linecap="round" stroke-linejoin="round"></path>
  </symbol>
  <symbol fill="none" xmlns="http://www.w3.org/2000/svg" viewBox="0 0 39 40" id="sadvantages-3">
    <path d="M4.67997 9.80199C7.12422 6.25625 10.7588 3.70434 14.9239 2.60949C19.089 1.51463 23.5085 1.94938 27.3804 3.83483C31.2523 5.72028 34.3201 8.93147 36.0266 12.8855C37.7331 16.8396 37.9653 21.2744 36.6812 25.3851C35.3971 29.4958 32.6819 33.0099 29.0281 35.2895C25.3743 37.5691 21.0243 38.4632 16.7676 37.8095C12.5109 37.1558 8.6297 34.9975 5.82841 31.7265C3.02711 28.4555 1.4914 24.2886 1.50004 19.982" stroke="#42AB75" stroke-width="3" stroke-linecap="round" stroke-linejoin="round"></path>
    <path d="M11.5 9.98193H3.5V1.98193" stroke="#42AB75" stroke-width="3" stroke-linecap="round" stroke-linejoin="round"></path>
    <path d="M19.5 11.9819V19.9819L25.5 25.9819" stroke="#42AB75" stroke-width="3" stroke-linecap="round" stroke-linejoin="round"></path>
  </symbol>
</svg>