<svg width="30" height="30" viewBox="0 0 30 30" fill="none" xmlns="http://www.w3.org/2000/svg">
<path d="M5.11994 19.6431L4.52533 20.2552C2.26433 22.6028 1.00929 25.7404 1.02754 28.9997C4.28682 29.0179 7.42443 27.7629 9.77201 25.5019L10.3666 24.9073" stroke="white" stroke-width="2" stroke-linecap="round" stroke-linejoin="round"/>
<path d="M16.7497 16.74C18.6815 16.74 20.2475 15.1739 20.2475 13.2422C20.2475 11.3104 18.6815 9.74438 16.7497 9.74438C14.818 9.74438 13.252 11.3104 13.252 13.2422C13.252 15.1739 14.818 16.74 16.7497 16.74Z" stroke="white" stroke-width="2" stroke-linecap="round" stroke-linejoin="round"/>
<path d="M6.60625 11.1437L1.00977 9.7446L3.90418 6.85018C5.20377 5.54974 6.7469 4.51819 8.44539 3.81449C10.1439 3.11079 11.9644 2.74873 13.8029 2.74902H17.7992" stroke="white" stroke-width="2" stroke-linecap="round" stroke-linejoin="round"/>
<path d="M27.2443 12.1929V16.1891C27.2446 18.0276 26.8825 19.8481 26.1788 21.5466C25.4751 23.2451 24.4436 24.7883 23.1431 26.0878L20.2487 28.9823L18.8496 23.3858" stroke="white" stroke-width="2" stroke-linecap="round" stroke-linejoin="round"/>
<path d="M28.9919 1H26.8932C23.6777 0.999768 20.4938 1.6329 17.523 2.86322C14.5523 4.09353 11.8529 5.89693 9.57914 8.17047L7.1307 10.6189C6.32588 11.4222 5.68734 12.3763 5.25169 13.4267C4.81603 14.477 4.5918 15.6029 4.5918 16.74C4.5918 17.8771 4.81603 19.0031 5.25169 20.0534C5.68734 21.1038 6.32588 22.0579 7.1307 22.8612V22.8612C7.93399 23.666 8.8881 24.3045 9.93844 24.7402C10.9888 25.1758 12.1147 25.4001 13.2518 25.4001C14.3889 25.4001 15.5149 25.1758 16.5652 24.7402C17.6156 24.3045 18.5697 23.666 19.373 22.8612L21.8214 20.4127C24.0949 18.139 25.8983 15.4396 27.1287 12.4688C28.359 9.49809 28.9921 6.31413 28.9919 3.09869V1Z" stroke="white" stroke-width="2" stroke-linecap="round" stroke-linejoin="round"/>
<path d="M28.2752 9.02716L20.9648 1.7168" stroke="white" stroke-width="2" stroke-linecap="round" stroke-linejoin="round"/>
</svg>
