<svg width="30" height="30" viewBox="0 0 30 30" fill="none" xmlns="http://www.w3.org/2000/svg">
<path d="M29 29V17.4706L12.5294 1L1 12.5294L17.4706 29H29Z" stroke="white" stroke-width="2" stroke-linecap="round" stroke-linejoin="round"/>
<path d="M20.7656 20.7646L22.4127 22.4116" stroke="white" stroke-width="2" stroke-linecap="round" stroke-linejoin="round"/>
<path d="M7.77757 11.4876L15.6972 19.4072L16.6588 18.4455L8.73923 10.5259L7.77757 11.4876ZM9.15784 11.9175L10.8888 10.1865C11.2886 9.78674 11.6846 9.49636 12.0768 9.31534C12.469 9.11923 12.8499 9.04758 13.2195 9.10038C13.589 9.13809 13.936 9.31911 14.2603 9.64344C14.5846 9.96776 14.7694 10.3185 14.8147 10.6956C14.8599 11.0576 14.7883 11.4385 14.5997 11.8383C14.4112 12.223 14.117 12.6152 13.7173 13.0149L11.9863 14.7459L12.8914 15.651L14.6224 13.92C15.1352 13.4071 15.5312 12.8603 15.8103 12.2795C16.0969 11.6912 16.2025 11.0954 16.1271 10.492C16.0441 9.88102 15.7236 9.29648 15.1654 8.73834C14.5997 8.17265 14.0152 7.8521 13.4118 7.77667C12.8084 7.70125 12.2125 7.80684 11.6242 8.09346C11.0435 8.37253 10.4966 8.76851 9.98374 9.2814L8.25274 11.0124L9.15784 11.9175ZM15.3012 17.4273L17.5639 15.1645L16.7154 14.316L14.4527 16.5787L15.3012 17.4273ZM11.0585 17.4838L13.3213 15.2211L12.4728 14.3726L10.21 16.6353L11.0585 17.4838ZM13.1516 19.5769L15.4143 17.3141L14.5658 16.4656L12.3031 18.7283L13.1516 19.5769Z" fill="white"/>
</svg>
